<svg width="41" height="58" viewBox="0 0 41 58" fill="none" xmlns="http://www.w3.org/2000/svg">
<g clip-path="url(#clip0_19_202)">
<path d="M14.7659 1.59738C14.9689 1.6003 15.1732 1.60468 15.3761 1.6076C15.2856 1.88502 15.3236 2.13324 15.4915 2.35225C15.8243 1.53313 15.9323 1.06882 14.8521 1.13452C14.8316 1.08342 14.8127 1.03231 14.7922 0.981209C15.6009 0.632243 17.6388 -0.173739 18.4534 0.300797C18.2914 0.452649 18.1264 0.60012 17.9571 0.743211C18.4724 0.795775 18.8402 0.5972 19.3205 0.877541C19.8767 1.20169 19.9205 1.9332 20.6781 1.35354C20.3628 1.15788 20.0986 0.99289 19.8242 0.823517C19.8315 0.740291 19.8461 0.566538 19.8548 0.46141H18.7702C18.76 0.365042 18.7483 0.270135 18.7381 0.173768C19.3264 0.0832408 22.4489 -0.315369 22.5292 0.535875C22.9802 0.487692 23.2562 0.214651 23.697 0.144566C24.1627 0.0700998 24.6225 0.356282 25.0765 0.33292C25.6239 0.305178 25.8415 0.0934616 26.4268 0.280356C27.0268 0.47017 27.618 0.833738 28.1874 1.09948L28.1538 1.33164C27.7173 1.45721 27.2823 1.58277 26.8239 1.71418C27.202 1.8894 27.5494 2.05293 27.8983 2.215C27.9217 2.17996 27.945 2.14346 27.9684 2.10841C27.8954 2.00475 27.8239 1.90108 27.6706 1.68206C28.2107 1.77551 28.7071 2.27341 29.0764 1.57693H28.2253C28.218 1.50831 28.2107 1.43968 28.2034 1.37106C29.7245 1.28637 30.7157 2.19018 31.9741 2.83847C32.2398 2.97572 32.6018 2.96112 32.85 3.12611C33.0631 3.26774 33.0339 3.40353 33.1886 3.54662C33.5945 3.92479 33.9857 4.03138 34.4572 4.3161C34.9025 4.58622 34.9229 4.83882 35.2732 5.18487C35.4309 5.3411 35.6922 5.3703 35.8499 5.52362C36.0557 5.72511 36.1039 6.00107 36.2732 6.22301C37.098 7.30203 38.1753 8.60737 38.5271 9.95505C38.26 9.72289 38.1286 9.60901 38.0031 9.50096C37.7607 9.69515 37.5359 9.87329 37.4089 9.97549C37.8483 10.4106 38.187 10.6355 38.2688 11.2443C37.4819 11.0326 37.444 10.4208 36.733 10.0222C36.9652 10.6238 37.0542 11.5758 37.8016 11.5729C38.8614 11.5685 38.4614 10.7231 38.3476 10.0689C38.8746 10.4559 39.8074 12.2927 39.057 12.8227C38.9782 12.5511 38.8994 12.2795 38.7899 11.9058C38.4323 12.5029 38.3082 12.5073 38.2775 12.3365C38.0848 12.4285 37.8936 12.5205 37.7009 12.6139C37.6878 12.5453 37.6746 12.4752 37.6615 12.4066C37.3885 12.1846 37.1141 11.9627 36.7666 11.6794C36.5914 11.2546 36.4192 10.9216 36.4192 10.4471C36.4192 9.92585 36.7856 9.40459 36.3433 8.94758C36.1579 9.05562 35.99 9.15491 35.79 9.27318C35.8031 9.42795 35.8207 9.65573 35.8396 9.88205C35.7958 9.91125 35.7535 9.94045 35.7097 9.96965C35.4893 9.66741 35.263 9.43671 34.9988 9.17535C34.8835 9.35933 34.7842 9.81926 34.6411 9.99009C34.5258 9.82656 34.412 9.66449 34.2499 9.43525C34.0426 9.72143 33.7302 10.0631 33.6514 10.4164C33.5551 10.8472 33.901 11.1728 33.8222 11.5772C33.7025 11.8211 33.5813 12.0635 33.4193 12.392C33.2018 12.2138 32.9536 12.0109 32.5741 11.7028C32.8821 11.6853 33.0324 11.678 33.3127 11.6619C33.0865 11.4575 32.92 11.3071 32.7215 11.1275C32.8558 11.0852 32.977 11.0472 33.047 11.0253C33.047 10.7187 33.3405 9.85722 32.8514 9.83386C32.72 9.48052 32.6208 9.21478 32.523 8.9505L32.539 8.96948C32.2617 8.18394 32.3186 8.56649 31.7376 8.49348C31.2821 8.43654 30.7318 8.58985 30.6369 8.04669C30.8077 8.03209 30.9551 8.02041 31.0836 8.00872C30.9814 7.46264 30.8851 6.95306 30.8004 6.50627C30.3625 6.70485 29.8632 6.93262 29.3654 7.15894C29.234 7.37212 29.0676 7.64078 28.8516 7.9912C28.5946 7.17792 28.3844 6.51503 28.1844 5.88134C27.8122 6.03027 27.164 6.02881 26.9538 5.55428C26.8443 5.30752 27.1436 5.08558 27.0575 4.79502C26.9509 4.43729 26.4736 4.39787 26.3714 3.98758C26.2779 3.61525 26.5538 3.19328 26.6867 2.86037C25.8181 3.23562 25.6385 4.04744 26.113 4.79648C26.44 4.68989 26.7363 4.61981 26.7728 5.08704C26.8093 5.55282 26.3641 5.21115 26.3407 5.528C26.2809 6.33544 28.3888 6.22009 27.9611 7.41446C28.3144 7.77657 28.618 8.08903 28.7961 8.27154C29.4793 7.74736 29.9815 6.89904 30.796 7.71232C30.6209 7.82475 30.4457 7.93572 30.2705 8.04815C30.3274 8.07005 30.3844 8.09341 30.4413 8.11531C30.4106 8.33725 30.3814 8.55919 30.3508 8.78112L30.3639 8.77236C30.2092 8.7782 30.0544 8.78404 29.8982 8.78988L29.9128 8.80302C29.7742 8.67746 29.6355 8.55189 29.4661 8.39857C29.091 8.96072 28.6326 8.60591 28.1888 8.45406C28.2063 8.83661 28.4151 9.22646 27.856 9.43525C27.8414 9.20894 27.8326 9.06292 27.821 8.87311C27.183 9.13593 27.3013 8.58547 26.8692 8.39127C26.621 8.28031 26.4371 8.4453 26.2108 8.37959C26.0561 8.33579 25.9612 8.11823 25.8721 8.09779C25.3583 7.98098 24.9612 8.15766 24.4269 8.20146C23.6196 8.26716 22.8153 8.03939 22.008 8.10509C21.3175 8.16204 20.7862 8.34601 20.119 8.27885C19.5147 8.21752 18.8811 8.2073 18.2505 8.17226C17.541 8.13283 16.6783 7.97076 15.979 8.10801C15.4243 8.21752 14.9484 8.91983 14.6083 8.10217C13.2857 8.50224 12.1252 8.15474 10.8113 8.02333C9.70481 7.91236 8.50777 7.85979 7.39394 7.87731C6.23632 7.8963 5.86553 8.38251 4.92833 8.88187C4.16486 9.28778 3.66707 9.60024 3.09774 10.3332C1.7737 12.0372 1.28905 14.5471 0.944535 16.6205C0.531411 19.1041 0.302222 21.4038 0.616079 23.9137C1.44671 22.8654 2.49484 22.566 3.76195 22.7748C3.70064 22.8537 3.65247 22.9165 3.69334 22.8624C4.26412 22.9471 5.01008 22.9384 5.54583 23.1486C5.71225 23.2143 5.65532 23.4844 5.9429 23.5881C6.58521 23.8203 7.60707 23.5107 7.69466 24.5094C7.88589 24.4978 8.0202 24.489 8.16472 24.4788C8.1399 24.3912 8.11508 24.305 8.07275 24.1532C8.40996 24.4218 8.55594 24.7489 8.94571 25.0015C9.38657 25.2877 9.6216 25.3724 9.86393 25.8776C8.8625 25.4425 7.03483 25.0044 6.57207 23.8685V24.6686C6.30201 24.3547 6.13413 24.159 5.92538 23.9166V24.451C5.15023 23.7166 4.14442 24.0466 3.30212 23.7312C2.93716 24.1444 2.43791 24.2802 2.21164 23.9794C2.03793 24.4072 1.84523 24.4934 1.51386 24.7474C1.39999 24.835 1.22044 24.689 1.09635 24.8307C0.943075 25.0044 1.03066 25.3899 1.02044 25.6031C0.962053 26.85 1.28321 28.0502 1.55473 29.2577C2.18829 32.0889 2.40726 34.9814 2.75323 37.8578C3.06563 40.4451 4.01158 42.8966 5.36482 45.1233C5.97647 46.1293 6.69907 47.0638 7.45233 47.9676C8.17056 48.8305 8.96761 50.0804 9.91794 50.7038C9.75736 50.3081 9.59678 49.911 9.43766 49.5153C9.49314 49.4905 9.54861 49.4657 9.60408 49.4408C10.2391 50.6995 10.8741 51.9581 11.5018 53.2021C11.7354 53.1174 11.877 53.0678 12.0186 53.0167C12.0361 53.0532 12.0536 53.0897 12.0711 53.1262C11.9821 53.2021 11.8916 53.2766 11.7821 53.3685C11.9427 53.5905 12.1018 53.9234 12.3646 54.0095C12.6375 54.0986 12.7047 53.6576 13.077 53.808L12.693 54.138C12.7091 54.1658 12.7266 54.192 12.7427 54.2198C12.9368 54.1468 13.1324 54.0738 13.3572 53.9891C13.3996 54.1906 13.4419 54.3935 13.4857 54.6067C13.874 54.3161 14.6083 54.4096 14.4273 53.5759C14.4857 53.5817 14.5441 53.5876 14.601 53.5934C14.6579 53.8343 14.7134 54.0738 14.7878 54.3892C14.9397 54.0548 15.0667 53.7701 15.1951 53.4853C15.2302 53.4941 15.2667 53.5014 15.3017 53.5102C15.3411 53.7321 15.3805 53.9555 15.4199 54.1774C15.4535 54.1774 15.4856 54.1774 15.5192 54.1774C15.5645 53.9701 15.6097 53.7628 15.655 53.554C15.6681 53.5627 15.6812 53.57 15.6944 53.5788V54.725C15.671 54.7191 15.6491 54.7133 15.6258 54.7075C15.7323 54.9717 15.8389 55.2346 15.9936 55.6156V53.792C16.1878 54.084 16.3454 54.3205 16.5907 54.6885C16.6199 54.2723 16.6403 53.9964 16.6491 53.8679C17.0359 53.6036 17.3279 53.405 17.6958 53.1524V54.0533C17.7264 54.0548 17.7585 54.0563 17.7892 54.0577C17.8286 53.8956 17.8666 53.7321 17.906 53.57C17.9585 53.573 18.0111 53.5759 18.0651 53.5788C18.0257 54.4359 17.6928 54.8666 18.6344 55.1528C18.4023 54.7104 17.9279 54.3731 18.3629 53.9278C18.5424 54.2052 18.7293 54.4957 18.9176 54.7878L19.1045 54.6972C18.9848 54.3483 18.8636 54.0008 18.7439 53.6518C18.814 53.627 18.884 53.6022 18.9541 53.5788C19.1249 54.1278 19.2942 54.6768 19.465 55.2258C19.5366 55.2024 19.6081 55.1791 19.6782 55.1557C19.5629 54.6812 19.449 54.2052 19.3337 53.7306L19.4636 53.6708C19.6285 54.0212 19.795 54.3731 19.9599 54.7235C19.9906 54.7133 20.0227 54.7031 20.0533 54.6943L19.8344 53.8971L20.0052 53.754C20.0869 53.9278 20.1687 54.1001 20.2504 54.2738C20.284 54.2534 20.319 54.2329 20.3526 54.2139C20.3584 54.0855 20.3657 53.9555 20.376 53.7467C20.5672 53.9088 20.7 54.0212 20.8738 54.1687C20.8884 54.0095 20.8986 53.8854 20.9117 53.7365C21.1059 53.7496 21.2796 53.7628 21.5642 53.7832C21.5423 54.0884 21.519 54.4227 21.4956 54.7571C21.519 54.7717 21.5409 54.7878 21.5642 54.8024C21.6825 54.5556 21.9146 53.7131 22.0956 53.5584C22.2547 53.4226 22.5905 53.6255 22.6956 53.5087C22.8313 53.3583 22.5963 53.1145 22.7613 53.0079C23.0751 52.8064 23.4182 52.8473 23.7934 52.8239C23.4532 53.1203 23.2284 53.3174 23.0036 53.5131L23.1569 53.6839C23.4941 53.3948 23.8328 53.1043 24.205 52.7845C24.059 52.6662 23.9452 52.5728 23.8313 52.4808C23.8503 52.4399 23.8707 52.3976 23.8897 52.3567C24.0474 52.4311 24.2065 52.5042 24.3787 52.5845C24.4984 51.8997 24.5948 52.3815 24.9977 52.069C25.4167 51.7434 25.767 51.2733 26.1349 50.8907H26.1334C26.9465 50.0541 27.7596 49.216 28.5742 48.3779L28.5596 48.3939C28.91 48.045 29.491 47.7077 29.4851 47.1908C29.2954 47.2711 29.11 47.3573 28.926 47.4492L28.8326 47.2755C29.2063 47.0521 29.6121 47.0609 29.945 46.8477C30.3435 46.5922 30.6749 45.8928 30.9522 45.5117C31.7376 44.4297 32.523 43.3493 33.3113 42.2702C34.7681 40.2772 35.0032 37.906 35.3696 35.5333C35.4294 35.5377 35.4893 35.5435 35.5491 35.5479C35.4046 38.144 34.8528 40.3341 33.4835 42.5739C32.1989 44.675 30.5858 46.5892 28.9888 48.4596C27.2925 50.4469 25.2678 52.0501 23.4518 53.9088C22.6474 54.7323 21.5978 55.0301 20.7395 55.7865C20.303 56.1705 20.0139 56.7093 19.5585 57.0655C19.0797 57.4393 18.4271 57.6715 17.887 57.9416C17.9074 57.8993 17.9425 57.8233 17.9629 57.7795C16.979 57.5956 15.9849 57.4101 15.0345 57.2335C15.109 57.6189 15.236 57.708 16.1236 57.8934C14.8243 58.495 14.9251 56.4888 13.7397 56.9809C13.9353 57.1809 14.1192 57.3327 14.2331 57.5883C13.7718 57.743 13.7105 57.4028 13.4375 57.0349C12.6244 57.4203 12.2872 56.499 12.2449 55.8872C12.1719 54.8024 12.2536 54.4125 11.5471 53.5525C10.3384 52.0793 9.15154 50.5783 7.98224 49.0729C5.42029 45.7716 3.23204 42.5696 2.48901 38.363C2.12843 36.3188 2.00727 34.2294 1.71239 32.1736C1.39707 29.9688 0.820452 27.8765 0.306601 25.7184C-0.138638 23.8524 0.0175606 21.5746 0.153322 19.6677C0.293463 17.7082 0.68615 15.7721 1.28467 13.9032C1.94596 11.8342 2.68024 9.7448 3.46123 7.72692C3.8802 6.64352 4.59112 5.99961 5.44365 5.23743C6.12829 4.62419 6.44361 3.48092 7.58517 3.86493C7.19249 4.14527 6.86257 4.38035 6.46697 4.66361C7.01439 5.11478 7.44795 4.54242 7.78955 4.08541C7.83188 4.11899 7.87568 4.15111 7.91801 4.18469C7.94721 4.38327 7.9764 4.5833 8.0056 4.78188C8.04501 4.77896 8.08297 4.7775 8.12238 4.77458C8.12238 4.25186 8.18953 3.42251 8.89024 3.63715C8.77199 3.83281 8.48587 4.10001 8.43478 4.3307C8.93549 4.20221 9.33256 4.18031 9.69459 3.8036C9.92086 3.56853 10.0595 2.82095 10.4946 3.39185C10.7719 3.12757 11.0537 2.85891 11.4668 2.46468C10.1019 2.88665 8.84936 3.27504 7.59685 3.66197C7.56912 3.61963 7.54284 3.57583 7.5151 3.53348C8.32821 2.82825 9.40993 2.68224 10.3938 2.25297C10.9836 1.99599 12.6799 1.04107 12.9499 1.96386C12.0069 1.82515 11.6945 1.95072 11.7281 2.32743C12.1368 2.21208 12.5427 2.10695 12.9368 1.94926C13.2448 1.55941 13.0915 1.33602 13.5981 1.13014C14.0287 0.954927 14.7353 1.07028 14.7849 1.60906C14.3689 1.70834 14.147 1.65724 14.0609 2.08067C14.3937 1.99745 14.5251 1.83245 14.7762 1.60468L14.7659 1.59738ZM14.9324 54.8199C14.8798 54.7118 14.8287 54.6053 14.7762 54.4972C14.7353 54.5016 14.6944 54.506 14.6535 54.5103C14.6798 54.7659 14.7075 55.0199 14.7338 55.2754C14.7995 55.2696 14.8667 55.2652 14.9324 55.2594C14.9324 55.1104 14.9324 54.963 14.9324 54.817C15.0491 55.0345 15.1659 55.2521 15.3542 55.5996C15.3542 55.0404 15.509 54.8228 14.9309 54.8184L14.9324 54.8199ZM12.185 3.27212C12.2011 3.38601 12.2157 3.49844 12.2317 3.61233C12.6288 3.28964 12.5164 2.83117 12.5397 2.33181C11.9047 2.64866 12.2551 2.65304 12.1763 3.28234C11.9909 3.15677 11.804 3.02975 11.6026 2.89249C11.3456 3.12611 11.1004 3.34805 10.8551 3.57145C10.8712 3.59919 10.8887 3.62839 10.9048 3.65613C11.331 3.52764 11.7587 3.39915 12.185 3.27066V3.27212ZM20.8066 6.86838C20.8957 6.98665 20.9832 7.10492 21.154 7.33123C21.1949 7.14288 21.2212 7.01877 21.2489 6.8932C21.1015 6.8859 20.954 6.8786 20.8066 6.8713C21.0314 6.0624 20.1833 5.91347 19.9468 5.2754C19.6709 6.31062 20.0592 6.32522 20.8066 6.86692V6.86838ZM35.0732 7.74882C34.9944 6.59388 34.6514 6.03173 34.0324 6.09452C34.2309 6.699 34.7171 7.22318 35.0835 7.7386C35.0528 8.4672 35.0587 8.48034 35.4075 8.40003C35.3579 8.2657 35.3097 8.13137 35.2616 7.99704C35.3039 7.95032 35.3462 7.90214 35.3886 7.85541C35.7039 8.07589 36.0192 8.29491 36.4148 8.57233C36.9652 8.14013 36.355 7.61011 35.7404 7.62033C35.7959 7.46994 35.8469 7.33123 35.9156 7.14142C35.5929 7.37358 35.3331 7.56193 35.0732 7.74882ZM13.3061 6.80267C12.4171 6.23907 12.112 6.80121 11.2142 6.92094C11.2493 7.39694 11.75 7.7386 12.2536 7.56339C11.9889 7.31712 11.9383 7.1239 12.1018 6.98373C12.5368 7.1969 12.8302 7.7021 13.2945 7.59989C13.2945 7.27429 13.2945 7.03191 13.2945 6.78953C13.4054 6.86692 13.5149 6.94284 13.6273 7.02023C13.7397 6.79245 13.8536 6.55737 13.9689 6.32376C14.0156 6.33982 14.0623 6.35588 14.109 6.37194C14.0609 6.64498 14.0112 6.91802 13.9397 7.32101C14.3295 7.24363 14.6667 7.17646 15.1864 7.07425C14.763 6.73697 13.4886 5.28416 13.0711 6.25805C13.1237 6.25805 13.1762 6.25659 13.2288 6.25513C13.255 6.43764 13.2813 6.62016 13.3076 6.80267H13.3061ZM24.8167 6.83187C24.6035 6.91364 24.3904 6.99395 24.2678 7.04067C23.8138 6.60994 22.7073 6.83626 22.4007 6.43034C21.9073 5.77621 22.8503 5.70321 23.2518 5.64188C22.2445 5.39513 22.5292 4.80378 22.1292 3.98028C21.9613 4.18615 21.862 4.3088 21.7117 4.49424C21.6577 4.29274 21.6256 4.17593 21.5993 4.07957C21.3263 4.27376 21.0971 4.43291 20.7935 4.57746C20.8562 4.68697 20.919 4.79648 20.992 4.92643C21.4066 4.46942 21.8723 4.60667 22.135 5.10018C22.4839 5.75285 22.119 5.82586 21.6256 6.04195C22.0182 6.30623 22.1744 6.63184 22.6591 6.78077C23.4386 7.01877 23.5788 6.96182 24.0795 7.7167C24.4517 7.30641 24.7962 7.45826 24.8006 6.81873C24.9846 6.6552 25.0663 6.31646 25.1612 6.23031C25.2532 6.14854 25.5948 6.08576 25.64 6.00253C25.9028 5.51631 25.494 5.5864 24.9218 5.5864C24.8576 5.95289 24.6444 6.48875 24.8152 6.83187H24.8167ZM32.5084 3.76126C32.4062 4.2504 32.2544 4.74538 32.5872 5.17319C32.6602 5.16151 32.7332 5.14837 32.8076 5.13669C32.7084 4.67821 32.6076 4.21974 32.5084 3.76126C32.6164 3.64737 32.7244 3.53494 32.9025 3.34659C31.6865 3.28526 30.5376 3.16408 29.564 2.4311C29.6107 2.37562 29.726 2.24129 29.8501 2.09381C29.6282 1.89816 29.4107 1.71565 29.307 2.15076C29.1844 2.66764 29.2034 2.67056 28.7684 2.41796C28.7319 2.39752 28.6706 2.3946 28.6311 2.41066C28.4706 2.47344 28.2239 2.50995 28.1757 2.62529C28.0793 2.85453 28.1421 3.10567 28.4501 3.18744C28.5231 3.31593 28.5961 3.44442 28.6691 3.57291C28.7523 3.4999 28.8355 3.42836 28.9187 3.35535L28.4355 3.2035C28.799 2.83263 28.8574 2.99032 29.2881 3.27066C29.6326 2.97572 29.6238 2.79759 30.0836 2.95966C30.7522 3.1962 30.3099 3.49552 30.4048 3.86201C30.5274 4.33362 31.3303 4.98483 30.9683 5.46083C31.0661 6.03319 31.1405 6.46539 31.2281 6.98081C31.4646 6.6625 31.4851 6.50627 31.5872 6.23177C31.7259 5.85944 31.5493 5.75577 32.0296 5.47543C31.9391 5.25641 31.8485 5.03448 31.7478 4.7921C31.8588 4.74246 31.9785 4.68843 32.1361 4.61689C32.0252 4.3234 31.9186 4.03722 31.8135 3.76272C32.0544 3.76272 32.2821 3.76272 32.5084 3.76272V3.76126ZM8.80849 5.35424C8.26398 5.36008 7.95888 4.56432 7.33847 5.125C7.45233 5.21991 7.5443 5.29584 7.63481 5.37176C7.19541 5.49587 6.69178 5.00382 6.37792 5.46375C6.19544 5.73241 6.32683 6.21133 6.6728 6.17775C6.63192 6.03611 6.58959 5.89448 6.51076 5.62144C6.99687 5.82586 7.21439 6.55299 6.49324 6.45371C5.76626 6.35296 6.02465 5.33526 6.26697 4.94687C5.84071 5.27248 5.55167 5.49295 5.36044 5.6375C5.29475 6.5968 6.72389 6.45079 6.5239 7.51813C6.68448 7.48454 6.79688 7.46118 6.90929 7.43782C6.85673 7.41008 6.80272 7.3838 6.75017 7.35605C6.80126 7.10784 6.85235 6.85816 6.90345 6.60994C7.33701 6.86838 7.72678 7.03483 8.20705 7.19252C8.20705 7.17938 8.20705 7.27721 8.20705 7.37358C8.25814 7.37942 8.3107 7.38526 8.36179 7.39256C8.4012 6.97789 8.10632 6.6844 8.15596 6.28725C8.20267 5.91493 8.56616 5.62582 8.80995 5.35424H8.80849ZM33.5813 5.23013C34.2996 5.46229 34.9667 5.67839 35.6353 5.89448C35.3316 5.43309 34.5828 5.5645 34.5477 4.81838C34.2309 4.86803 33.9127 4.91913 33.4645 4.99067C33.6324 4.71179 33.7156 4.57308 33.8835 4.2942C33.5507 4.33508 33.3302 4.36137 33.0865 4.39203C33.0456 4.31318 32.9814 4.19199 32.9186 4.0708C32.8704 4.09855 32.8222 4.12483 32.7741 4.15257C33.1521 4.7483 33.3098 5.15713 33.4266 5.87404C33.466 5.87404 33.504 5.8755 33.5434 5.87696C33.5565 5.66671 33.5697 5.45645 33.5828 5.23159L33.5813 5.23013ZM29.7537 4.51614C29.5085 4.15987 29.3508 3.93063 29.1771 3.67803C28.9727 3.91457 29.037 4.20075 28.6808 4.28544C28.2881 4.37889 27.8969 3.77586 27.6151 3.52472C27.929 4.93227 28.0662 5.04178 29.4822 4.99798C28.8428 4.86218 29.0749 4.60374 29.2063 4.32924C29.3654 4.38473 29.4924 4.42707 29.7552 4.5176L29.7537 4.51614ZM12.4711 5.8901C12.5091 5.93537 12.5485 5.98209 12.5865 6.02735C12.8288 5.79666 13.3032 5.51923 13.2682 5.34548C13.1631 4.83006 12.8565 4.35553 12.5704 3.7379C12.2653 4.0781 12.0522 4.3161 11.7208 4.68405C12.1748 4.60229 12.4405 4.5541 12.877 4.47379C12.5251 4.88409 12.2974 5.15129 12.0609 5.42725C12.3821 5.36592 12.6361 5.31628 12.8901 5.2681L12.9499 5.43309C12.7894 5.58494 12.6303 5.73679 12.4697 5.88864L12.4711 5.8901ZM17.5031 7.10492C18.3731 7.10492 18.2724 6.94284 18.4811 6.11788C18.43 6.10036 18.379 6.08284 18.3279 6.06678C18.4154 5.98939 18.5045 5.91201 18.614 5.81564C18.3644 5.60684 18.1468 5.42579 17.8622 5.18779C17.6709 5.51777 17.4155 5.71051 17.6418 6.04633C17.7819 5.96895 17.8972 5.9047 18.0125 5.84046C18.0476 5.86528 18.0826 5.8901 18.1191 5.91492C17.9293 6.28141 17.7381 6.64936 17.5031 7.10346V7.10492ZM29.0238 5.75723C29.4311 5.78644 30.1888 6.00837 30.4574 5.63312C30.7522 5.22137 30.2851 4.43875 29.9201 4.23726C30.0311 4.5906 30.0968 4.7994 30.1552 4.98337C30.0384 5.13377 29.9143 5.29438 29.8428 5.38636C29.4997 5.36592 29.2063 5.34694 28.9012 5.32942C28.9581 5.53384 29.0063 5.70029 29.0224 5.75869L29.0238 5.75723ZM24.9043 5.17465C24.9451 5.18925 24.986 5.20385 25.0283 5.21845C25.1962 5.00236 25.3641 4.78626 25.5524 4.54534C25.4473 4.01678 25.4619 3.11443 24.9729 2.85453C24.6941 2.7056 24.0036 2.77277 24.0021 3.17722C25.2283 2.98156 24.805 3.35827 24.7028 4.27668C24.9393 4.11753 25.097 4.01094 25.3495 3.84157C25.1714 4.37743 25.0386 4.77604 24.9043 5.17465ZM9.13548 7.48746C9.18512 7.49623 9.23475 7.50353 9.28438 7.51229C9.21431 7.04943 9.07417 6.77493 9.32672 6.45955C9.67123 6.02735 9.97779 6.37778 9.72816 5.71051C9.3238 5.8901 9.06979 6.86984 8.55448 5.77183C8.53259 6.55591 8.70192 6.86546 9.13694 7.48892L9.13548 7.48746ZM10.2406 4.90307C10.2201 4.95271 10.1997 5.00382 10.1792 5.05346C10.3121 5.20531 10.4449 5.3557 10.6347 5.57326C10.3938 5.59662 10.2566 5.60976 10.0114 5.63312C10.1909 5.84338 10.3106 5.98501 10.423 6.11642C10.7048 5.87112 10.9354 5.66963 11.1004 5.52654C11.3442 5.6083 11.5091 5.66379 11.6726 5.71927C11.7004 5.5791 11.7296 5.44039 11.7617 5.27832C11.2157 5.14399 10.7281 5.02426 10.2406 4.90307ZM19.5191 5.47397C19.976 4.42853 19.9541 4.35553 21.1453 4.09563C20.63 3.57437 19.9088 3.90435 19.0811 5.0447C19.7468 4.81692 19.2213 5.32796 19.5176 5.47543L19.5191 5.47397ZM14.4316 5.13961C14.2915 5.42579 14.1922 5.62582 14.093 5.82732C14.1411 5.85068 14.1908 5.8755 14.239 5.89886C14.9382 4.94833 14.9324 4.92205 13.8725 4.17009C13.7339 4.34969 13.5952 4.53074 13.4565 4.71033C13.6156 4.75706 14.0433 4.58476 14.0857 4.57308C13.9558 4.81692 13.82 5.05638 13.6784 5.29146C13.9893 5.22867 14.2331 5.17903 14.4302 5.13961H14.4316ZM22.2971 2.62675C22.4503 2.67932 22.6781 2.75816 22.9219 2.84285C23.0474 2.54499 23.1686 2.25881 23.2343 2.10403C23.5335 2.15806 23.7437 2.19602 23.9539 2.23398C24.0094 2.17996 24.0634 2.12594 24.1189 2.07191C23.4299 2.03979 23.8649 1.6806 23.7977 1.35646C23.1948 1.74193 22.7744 2.09819 22.2971 2.62675ZM16.4564 4.18761C16.8257 3.88829 17.125 3.64591 17.3775 3.4415C16.8651 3.24876 16.8491 3.1816 16.7148 2.64574C16.5089 2.70998 16.29 2.77861 15.9703 2.87935C16.8155 3.09253 15.7484 3.48822 16.1542 3.73498C16.3075 3.67511 16.4418 3.62255 16.6199 3.55246C16.5615 3.78024 16.5192 3.94816 16.4579 4.18761H16.4564ZM32.4587 6.6187C32.0865 6.84502 31.4865 6.864 31.7084 7.56777C31.8223 7.92842 32.0281 8.06129 32.4076 7.9912C32.3084 7.90214 32.2077 7.81161 32.0777 7.6948C32.8835 7.52689 32.2748 6.9589 32.4587 6.6187ZM21.2518 1.01917C21.2314 0.99289 21.211 0.968068 21.192 0.941786C20.9803 1.32434 20.8197 1.83829 20.4066 2.01789C19.9117 2.23252 19.6694 1.71857 19.5526 2.33035C20.4781 2.44424 21.1336 1.96678 21.2518 1.01917ZM33.2616 7.92258C33.2295 7.99704 33.1959 8.07151 33.1638 8.14597C33.6704 8.63511 34.0791 8.88625 34.7112 9.19141C34.6017 8.95196 34.3287 8.55189 34.2032 8.41025C34.1521 8.35185 34.212 8.14451 34.0952 8.03355C33.9755 7.91966 33.4281 7.94156 33.2616 7.92112V7.92258ZM15.2915 5.5645C15.6301 5.50901 15.6331 5.49879 16.0082 5.601C15.6842 5.95289 15.5513 5.83754 15.4316 6.33544C15.8228 6.28579 16.1674 6.15146 16.5381 6.02443C16.2506 5.62728 15.9878 5.26226 15.6491 4.79502C15.4827 5.14983 15.4039 5.3192 15.29 5.5645H15.2915ZM15.9236 7.57799C16.0929 7.38818 17.4009 7.73276 16.7717 7.27429C16.3484 6.9662 14.8433 6.97059 15.1367 7.71378C15.5411 7.52981 15.5323 7.54733 15.9236 7.57653V7.57799ZM19.1249 3.07355C18.8724 3.10567 18.6315 3.13633 18.3906 3.16846C18.2519 3.83135 18.56 5.02426 19.1658 4.02992C18.9361 3.98514 18.923 3.66635 19.1264 3.07355H19.1249ZM13.1645 55.1864C13.1018 55.1937 13.0405 55.2024 12.9777 55.2097C12.7354 55.8741 12.7879 56.299 13.1645 56.9049C13.3324 56.2742 13.2988 55.8215 13.1645 55.1864ZM8.92527 5.3119C9.35154 5.22867 9.36467 5.20385 9.82013 5.37176C9.97049 4.00948 9.4289 4.5249 8.92527 5.3119ZM26.9509 1.3988C26.7655 0.643923 26.3495 0.388404 26.1758 1.25279C26.4122 1.29659 26.6473 1.34186 26.9509 1.3988ZM5.4743 7.62764C5.52539 7.59259 5.57649 7.55901 5.62758 7.52397C5.22321 7.21734 5.23051 6.93262 5.6305 6.5822H4.57506C4.86264 6.91656 5.1692 7.27283 5.4743 7.62764ZM21.8431 3.4415C22.4138 2.85453 22.5306 3.53932 22.8489 3.75834C22.8751 2.85307 22.1788 2.9363 21.6183 2.75816C21.6942 2.98886 21.7584 3.18452 21.8445 3.4415H21.8431ZM17.3731 2.88811C17.4242 2.89249 17.4768 2.89688 17.5279 2.90126C17.5658 2.25297 17.6622 1.72587 17.849 1.10386C17.0607 0.808916 17.3892 2.54061 17.3731 2.88811ZM25.8634 7.4422C26.0385 7.27429 26.202 7.11952 26.383 6.94576C26.3349 6.87568 26.259 6.76471 26.2049 6.68586C25.9845 6.73113 25.8006 6.76909 25.5524 6.82019C25.6619 7.04067 25.7743 7.26553 25.8634 7.44366V7.4422ZM20.3146 3.18452C20.0709 3.02682 19.8913 2.91002 19.7789 2.83701C19.668 3.18306 19.576 3.47216 19.4826 3.76126C19.5293 3.79922 19.576 3.83719 19.6212 3.87515C19.8446 3.65321 20.0665 3.43128 20.3132 3.18452H20.3146ZM32.5653 8.28469C32.8047 8.70228 33.0135 9.06438 33.2456 9.46883C33.504 8.9651 33.2047 8.4672 32.5653 8.28469ZM26.964 6.63622C26.9422 6.69316 26.9203 6.74865 26.8984 6.80559C27.0005 6.97643 27.3056 7.57069 27.6151 7.33561C28.0516 7.00563 27.1188 6.71653 26.964 6.63622ZM25.3043 1.14182C25.2269 1.04253 25.1466 0.938866 25.0911 0.868781C24.8342 1.00895 24.6357 1.117 24.3831 1.25425C24.5466 1.39734 24.6911 1.52145 24.8459 1.65724C25.0006 1.48349 25.1437 1.32288 25.3043 1.14182ZM4.72396 7.9547C4.41157 8.30221 3.91377 7.39548 3.60575 8.23796C4.01742 8.01748 4.46996 8.77674 4.72396 7.9547ZM11.9149 3.80652C11.4332 4.12191 10.8157 4.41393 11.3748 4.93811C11.5588 4.55264 11.7135 4.22704 11.9149 3.80652ZM15.3615 4.15695C15.5192 3.77294 15.6564 3.44004 15.7922 3.10713C15.7571 3.09399 15.7236 3.08231 15.6885 3.06917C15.4287 3.36995 15.1688 3.67073 14.855 4.03284C15.1382 4.10293 15.2535 4.13067 15.3615 4.15695ZM17.4228 57.2408C17.925 56.6947 17.9016 56.5618 17.325 56.1997C17.3615 56.5866 17.3921 56.9137 17.4228 57.2408ZM23.8766 3.72768C23.5977 4.14819 23.4751 4.33216 23.4751 4.8286C23.5452 4.84174 23.6153 4.85342 23.6868 4.86657C23.4912 4.2942 23.7291 4.0635 24.3233 4.10001C24.1335 3.94231 24.0079 3.83719 23.878 3.72768H23.8766ZM33.0135 6.11496L33.0748 5.90324C32.8281 5.76891 32.5814 5.63604 32.3361 5.50171C32.3799 6.0843 32.431 6.03757 33.0135 6.11496ZM16.3746 5.16735C16.8812 5.43455 16.7162 5.97625 16.9732 6.08868C17.1133 6.15 17.1498 5.13961 16.3746 5.16735ZM26.5641 1.82807C26.0342 1.58424 25.7699 1.72733 25.7276 2.27195C26.0108 2.12156 26.2706 1.98431 26.5641 1.82807ZM4.58674 7.11806C4.42032 7.07279 4.26558 7.03045 4.06705 6.97643C4.04515 7.15164 4.02764 7.29181 4.00866 7.43344C4.23055 7.47432 4.40281 7.50645 4.58528 7.54003V7.11806H4.58674ZM24.6736 0.797235C23.735 0.699408 23.6883 0.72715 23.843 1.13014C24.1218 1.01771 24.3977 0.908204 24.6736 0.797235ZM32.8003 7.3984L32.8106 7.62618C32.9959 7.6437 33.1799 7.66122 33.3653 7.67874C33.3551 7.55463 33.3434 7.42906 33.3332 7.30495C33.1565 7.33561 32.9784 7.36774 32.8018 7.3984H32.8003ZM18.1614 56.7881C18.2155 56.7881 18.2695 56.7852 18.3235 56.7837C18.5235 55.8142 18.1614 55.7704 18.1614 56.7881ZM18.8286 6.66688C18.7556 7.00125 18.7176 7.18084 18.6782 7.36044C18.849 7.33561 19.0213 7.31079 19.2738 7.27575C19.1147 7.05819 19.014 6.92094 18.8286 6.66834V6.66688ZM16.9425 53.9832C17.0038 54.1628 17.0724 54.3643 17.1805 54.6826C17.3031 54.2636 17.395 53.9453 17.506 53.5686C17.268 53.7438 17.1045 53.865 16.9425 53.9832ZM15.3586 56.207C15.2842 56.2493 15.2097 56.2917 15.1367 56.3326C15.2783 56.5691 15.4199 56.8042 15.5615 57.0407C15.6258 57.0042 15.69 56.9663 15.7542 56.9297C15.6228 56.6888 15.4915 56.4479 15.3601 56.207H15.3586ZM10.2347 6.30039C10.1749 6.58658 10.1354 6.77201 10.0975 6.95744C10.1398 6.98519 10.1807 7.01439 10.223 7.04213C10.3486 6.90196 10.4727 6.76179 10.5982 6.62016C10.496 6.53109 10.3953 6.44057 10.2347 6.30039ZM16.0535 54.5702C16.0958 54.8564 16.125 55.0579 16.1455 55.1908C16.3119 55.0739 16.4681 54.9659 16.6827 54.8155C16.4812 54.7367 16.3002 54.6651 16.0549 54.5702H16.0535ZM19.1059 2.70122C19.0709 2.61653 19.0359 2.53185 19.0008 2.44716C18.814 2.53623 18.6286 2.62383 18.4417 2.7129C18.6184 2.99178 18.8227 2.79759 19.1059 2.70122ZM14.7616 55.6522C14.7003 55.6697 14.6404 55.6872 14.5791 55.7033C14.6214 55.9471 14.6652 56.1924 14.7075 56.4362C14.7776 56.4202 14.8491 56.4041 14.9192 56.388C14.8667 56.1427 14.8141 55.896 14.7616 55.6507V55.6522ZM33.501 10.177C33.6602 9.81634 33.7755 9.55644 33.8908 9.29508C33.8675 9.28632 33.8456 9.27756 33.8222 9.2688C33.6733 9.40897 33.5229 9.5506 33.3521 9.71121C33.3901 9.82948 33.4354 9.97111 33.501 10.177ZM14.02 2.82387C14.0769 2.86329 14.1324 2.90272 14.1893 2.94214C14.2959 2.82679 14.4025 2.70998 14.5076 2.59463C14.4214 2.52163 14.3353 2.44862 14.2506 2.37562C14.1733 2.52601 14.0959 2.67494 14.02 2.82533V2.82387ZM15.6039 2.97718C15.2958 2.45738 15.3134 2.53915 14.7572 2.79467C15.1075 2.87059 15.274 2.90564 15.6039 2.97718ZM30.9318 6.1354C30.6223 5.89886 30.7435 5.8901 30.3041 6.13978C30.5187 6.40698 30.6194 6.26535 30.9318 6.1354ZM18.0885 56.9327C18.0432 56.9108 17.9979 56.8874 17.9541 56.8655C17.9074 57.0363 17.8607 57.2072 17.8155 57.3765C17.9498 57.4087 18.0841 57.4408 18.2082 57.47C18.1614 57.2554 18.1249 57.0933 18.0899 56.9327H18.0885ZM23.805 2.67786C23.7481 2.61361 23.6897 2.54791 23.6328 2.48366C23.5029 2.60485 23.3729 2.72604 23.243 2.84723C23.4795 3.03997 23.5744 2.85015 23.805 2.67932V2.67786ZM5.68013 6.95014C5.66408 7.02753 5.64656 7.10492 5.6305 7.18084C6.25384 7.29619 6.32391 7.10784 5.68013 6.95014ZM25.9728 0.496452C25.9509 0.439508 25.929 0.382564 25.9072 0.325619L25.1554 0.60158L25.224 0.785554C25.4736 0.689187 25.7232 0.59282 25.9728 0.496452ZM12.8755 4.01386C13.0711 3.75396 13.166 3.62839 13.2857 3.46924C13.1178 3.42398 13.004 3.39331 12.8375 3.34659C12.8492 3.54224 12.8565 3.68826 12.8755 4.01386ZM10.8931 4.19345C10.7354 3.96714 10.5617 3.61963 10.3033 4.11753C10.553 4.14965 10.7223 4.17155 10.8931 4.19345ZM29.7946 6.49021C29.526 6.27995 29.4355 6.20841 29.345 6.13832C29.0618 6.60264 29.4151 6.6333 29.7946 6.49021Z" fill="black"/>
<path d="M9.72378 28.1451C8.69462 26.8923 7.27569 27.0413 5.81589 27.0588C4.79403 27.0705 1.82333 26.5434 2.25397 28.516C3.76487 27.4705 5.11519 27.6078 6.8903 27.6049C7.60853 27.6049 8.12822 27.6297 8.76177 27.9976C9.15884 28.2283 10.169 28.8299 10.2639 29.3292C10.4697 30.398 7.05526 30.3586 6.32828 30.4331C4.66849 30.6025 3.85684 30.2433 2.67294 29.1146C1.93866 29.7483 1.70801 28.8051 1.73428 28.1188C1.76932 27.2427 2.70943 26.5171 3.51962 26.4864C4.76629 26.4397 6.10931 26.6499 7.35744 26.7244C8.37492 26.7843 9.72378 26.9011 9.72378 28.1451ZM5.30204 30.0856C5.04803 29.2986 4.79841 27.2427 3.51378 28.3583C2.45105 29.2811 4.5736 30.0316 5.30204 30.0856ZM8.87126 28.6182C8.79243 29.0328 8.73695 29.3278 8.67564 29.649C9.06395 29.5906 9.40116 29.5395 9.73838 29.4899C9.74422 29.4358 9.75152 29.3804 9.75736 29.3263C9.48291 29.1073 9.20701 28.8868 8.87126 28.6182ZM7.04212 29.9264C7.52824 29.8622 8.05085 29.944 8.2596 29.4709C7.86983 29.3628 7.52386 29.4869 7.12971 29.5643C7.11803 29.6125 7.09176 29.722 7.04212 29.9264ZM8.18223 28.3641C8.17785 28.3218 8.17493 28.278 8.17055 28.2356C8.03187 28.2166 7.89319 28.1962 7.75451 28.1772V28.6269C7.94866 28.5072 8.06545 28.4357 8.18223 28.3641Z" fill="black"/>
<path d="M28.361 27.1844C27.3041 27.6516 26.0283 28.5788 24.8633 28.37C25.0283 27.9086 25.4195 27.3347 24.7203 27.1566C24.6531 27.2355 24.5699 27.3333 24.4283 27.5012H25.04C23.8663 27.9772 23.313 28.075 22.062 27.8925C22.1831 28.6123 22.6693 28.8722 23.3889 28.8737C23.3641 28.9569 23.3393 29.0402 23.3145 29.1219C21.7364 29.1643 19.8781 29.487 18.3278 29.1789C16.5775 28.8314 18.8256 27.5567 19.5234 27.0924C22.3116 25.2351 25.3509 26.336 28.2661 27.0617C28.2968 27.1026 28.3275 27.1435 28.3596 27.1844H28.361ZM21.1029 26.7799C20.3365 27.2982 19.5307 27.8429 18.5804 28.4868C19.7643 28.881 20.7598 29.2373 21.8036 28.9365C21.5875 28.2707 21.373 27.6092 21.1029 26.7799ZM25.6881 26.8295C25.583 27.361 25.4881 27.8414 25.383 28.3685C25.8648 27.986 26.329 27.6165 26.8735 27.1844C26.4093 27.0456 26.0429 26.9361 25.6867 26.8295H25.6881Z" fill="black"/>
<path d="M39.1373 15.7867C39.2467 15.8291 39.3548 15.8729 39.4628 15.9152C39.5606 15.7137 39.6511 15.5283 39.7416 15.3428C40.1781 16.5051 40.073 17.4527 39.9139 18.6879C39.8219 19.4092 39.2832 20.6649 39.7183 21.268C39.9591 21.6023 40.4496 21.7162 40.6934 22.1265C40.8496 22.3908 40.9328 22.6916 40.9722 22.9938C41.1095 24.0626 40.7357 25.2877 40.4598 26.3097C40.1518 27.4472 39.8555 28.5744 39.6978 29.7439C39.5606 30.7645 39.6307 31.8114 39.4686 32.8218C39.1504 34.8017 37.2278 36.1903 35.2644 35.2222C35.2717 35.1711 35.279 35.1186 35.2848 35.0675C36.6921 35.0003 38.1884 35.2339 38.9197 33.7242C39.2993 32.9416 39.2073 32.0392 39.2613 31.1982C39.3373 30.014 39.5343 28.8416 39.7912 27.6837C40.1431 26.0907 41.4423 23.4026 40.0861 21.9601C38.3533 20.1145 36.8322 22.6653 35.8308 23.8232C35.3724 22.8712 37.5329 21.027 39.0073 21.0095C39.1314 20.0867 39.254 19.1654 39.3752 18.2426C39.3387 18.1974 39.2321 18.063 39.1241 17.9287C39.238 17.8528 39.3533 17.7783 39.5066 17.6776C39.3212 17.6031 39.1489 17.5345 38.9052 17.4381C39.1358 17.2585 39.5796 17.2804 39.6278 17.0307C39.6555 16.8862 39.0818 16.07 38.9971 15.8831L39.1402 15.7867H39.1373Z" fill="black"/>
<path d="M8.35741 41.4584C8.66251 42.7404 10.1238 42.7301 11.185 42.9039C12.4084 43.1054 13.5572 42.8747 14.7849 42.8747C14.2754 43.7274 11.9733 43.2514 11.1938 43.2061C11.4405 43.6471 11.712 44.5159 12.1704 44.7904C12.566 45.0269 12.8609 44.8415 13.2711 44.8648C13.9047 44.9013 14.3003 45.1963 14.9659 45.0298C15.4856 44.8999 15.6812 44.84 16.2944 44.7801C18.9454 44.5173 21.0227 42.8659 23.3175 41.7475C23.2474 41.6438 23.1773 41.5402 23.1072 41.4365C21.6504 41.8074 20.2066 42.1227 18.7249 42.3812C17.906 42.5243 15.7104 43.2923 15.0345 42.7228C15.5177 42.3987 16.4798 42.6557 17.0972 42.5476C18.1001 42.3739 19.1001 42.1271 20.1015 41.9344C21.4869 41.6672 23.7481 41.4117 24.5014 40.0041C24.551 40.0202 24.6021 40.0377 24.6517 40.0538C24.2999 41.6482 22.5219 42.6236 21.1643 43.2996C19.3804 44.1873 17.6053 44.8561 15.6185 45.0926C13.9674 45.2897 12.2536 45.4825 10.8026 44.5086C10.223 44.1202 7.62167 42.0862 8.35887 41.4613L8.35741 41.4584Z" fill="black"/>
<path d="M23.1598 22.6171C22.6912 22.1586 22.3292 22.4755 22.1073 22.7485C20.9642 22.8916 20.0752 23.3311 19.0402 23.8378C18.1833 24.2568 17.7045 25.0394 16.9104 25.5549C16.8491 25.4892 16.7878 25.4234 16.7264 25.3577C17.3162 24.6204 17.776 23.718 18.5059 23.1209C18.8417 22.8464 20.1993 21.8097 20.5949 22.0959C21.3277 21.7454 22.0124 21.4169 22.7481 21.0665C22.7321 21.2329 22.7218 21.3468 22.7058 21.5118C23.2605 21.2388 23.7671 20.9891 24.2736 20.7394C24.297 20.7803 24.3218 20.8212 24.3451 20.8635C24.1714 21.0636 23.9977 21.2651 23.8415 21.4446C24.2605 21.3439 24.6707 21.2461 25.0809 21.1482C25.0999 21.2037 25.1203 21.2578 25.1393 21.3132C24.4196 21.7031 23.8036 22.109 23.1598 22.6171Z" fill="black"/>
<path d="M27.0151 20.9511C26.8428 21.1614 26.7421 21.287 26.6238 21.4315C27.8778 21.2753 28.3406 22.3295 29.2004 22.8639C29.0252 22.9573 28.942 23.0026 28.9026 23.023C29.0602 23.3618 29.2062 23.6713 29.3201 23.9152C28.323 24.1356 28.0924 23.502 27.2793 23.099C26.5786 22.75 25.7801 22.6069 25.0633 22.2638C25.237 22.4594 25.3275 22.5631 25.3553 22.5952C25.1801 22.6098 24.9451 22.6303 24.7115 22.6492C24.7115 22.715 24.7086 22.7792 24.7086 22.8449C24.5509 22.712 24.3947 22.5792 24.2371 22.4463C24.2093 22.4667 24.1801 22.4857 24.1524 22.5062C24.2093 22.6113 24.2663 22.7164 24.3203 22.8186H23.6707C24.1203 21.614 25.8326 21.1424 27.0165 20.9541L27.0151 20.9511Z" fill="black"/>
<path d="M16.5702 27.8107C18.5555 26.6952 20.1029 25.5184 22.389 25.0701C23.5495 24.8423 24.7188 24.8394 25.8939 24.9329C26.9143 25.0146 27.9187 25.9389 28.3552 26.8588C27.4501 26.4163 26.5377 25.5782 25.5699 25.3797C24.567 25.1752 23.224 25.3621 22.2196 25.514C21.081 25.6848 20.046 26.0528 19.0913 26.7011C18.3599 27.1975 17.5541 28.1612 16.5702 27.8122V27.8107Z" fill="black"/>
<path d="M39.6103 24.3123C39.5651 23.5078 39.4585 22.3149 38.3666 22.5748C37.3301 22.8216 36.5622 24.1123 36.2863 25.0409C36.1126 25.6264 35.9915 26.2236 36.0061 26.8369C36.0221 27.5333 36.4119 28.1393 36.4411 28.808C36.4644 29.357 36.1097 29.833 36.0513 30.3645C35.9725 31.0653 36.0805 31.7545 35.9988 32.4773C36.1944 32.616 36.4002 32.7386 36.6017 32.8657C36.1623 32.9007 35.7856 33.0233 35.3564 33.1212C35.3681 32.6247 35.6864 32.2232 35.7156 31.6976C35.7535 31.0142 35.6586 30.4857 35.8586 29.8169C36.3112 28.2955 35.5229 26.8427 35.9214 25.2161C36.2148 24.0174 36.933 22.7164 38.1724 22.255C39.695 21.6885 39.7738 23.2348 39.8337 24.2977C39.7607 24.3021 39.6862 24.3079 39.6132 24.3123H39.6103Z" fill="black"/>
<path d="M38.822 23.6903C39.0847 25.3986 39.7855 27.491 39.2993 29.1832C39.0789 29.9513 38.6249 30.5674 38.0395 31.0975C37.8527 31.2668 37.6176 31.3866 37.4483 31.5749C37.2366 31.81 37.0746 32.3459 36.7958 32.4787C36.8045 31.3982 37.387 31.2946 38.0687 30.6915C38.6045 30.2185 38.8862 29.5308 39.022 28.8445C39.3548 27.1479 38.203 25.2322 38.7271 23.6538C38.7592 23.6669 38.7899 23.6786 38.822 23.6918V23.6903Z" fill="black"/>
<path d="M10.6171 29.3848C10.6171 29.3848 10.7135 29.3789 10.8492 29.3716C10.6667 28.316 11.4098 27.18 10.3894 26.1798C11.8098 26.2222 11.1193 29.4651 11.0638 30.3981C10.9777 31.8742 11.0448 33.8352 10.4288 35.1858L10.2419 35.1376C10.55 33.2511 10.9879 31.2858 10.6171 29.3848Z" fill="black"/>
<path d="M19.6037 36.3261C19.4285 36.7393 19.138 36.7393 18.4475 36.1918C18.3658 37.2781 18.4884 38.1264 17.2972 38.4403C16.3571 38.6871 15.1426 39.055 14.182 39.1704C15.1163 37.9658 16.5892 38.7718 17.6271 38.0315C18.0695 37.7161 18.2286 37.1496 18.2184 36.621C18.2067 35.999 17.7877 35.7362 17.7118 35.2033C18.4008 35.3449 19.0271 35.9304 19.6052 36.3276L19.6037 36.3261Z" fill="black"/>
<path d="M32.5201 8.94611C32.4485 9.24689 32.377 9.54622 32.2894 9.91416C32.415 9.95943 32.6836 10.0587 32.9536 10.1565C32.9507 10.1945 32.9463 10.2325 32.9434 10.2704C32.777 10.2953 32.6091 10.3201 32.4077 10.3507V10.8516C32.0967 10.6223 31.8602 10.4486 31.7216 10.3464C31.6529 9.92585 31.6004 9.60754 31.542 9.25857C31.4179 9.34764 31.3099 9.42503 31.2968 9.43379C31.3537 9.77545 31.4004 10.05 31.4471 10.3245C31.0019 10.3478 31.0924 10.0967 31.0165 9.68201C30.3274 10.1799 30.3756 9.19725 30.3566 8.76652L30.3435 8.77528C30.6048 8.83368 30.8661 8.89355 31.1055 8.94757C31.1581 8.82638 31.2077 8.70811 31.2588 8.58984C31.5259 8.87019 31.6442 9.10088 31.8237 9.44109C31.8661 9.27172 31.8982 9.14615 31.9055 9.11694C32.1697 9.0527 32.3522 9.0089 32.5347 8.96509L32.5186 8.94611H32.5201Z" fill="black"/>
<path d="M9.65224 35.7494C9.39969 36.2736 8.85518 37.0416 9.05664 37.665C9.31502 38.4652 9.84639 38.0637 10.4026 38.3425C10.8493 38.5674 10.9646 39.223 11.5033 39.4843C12.0521 39.7515 12.6317 39.6245 13.2098 39.7077C11.7325 40.5677 11.0595 39.2653 9.87704 38.7324C8.19243 37.9731 8.78949 36.9992 9.53253 35.6691C9.57341 35.6953 9.61282 35.7216 9.65369 35.7479L9.65224 35.7494Z" fill="black"/>
<path d="M29.891 8.78403C29.8077 8.94902 29.6997 9.09649 29.5698 9.2279C29.7406 9.36077 30.3318 9.87035 30.3216 10.0981C30.3085 10.3522 30.0048 10.3536 29.9406 10.4705C29.8486 10.6384 29.6807 10.5566 29.5859 10.8326C29.526 11.0078 29.6924 11.2852 29.6778 11.4794C29.2384 11.31 29.1888 10.4719 29.5596 9.62213C28.9917 9.70828 29.1523 10.1814 29.0253 10.6092C28.6355 10.1726 28.5859 9.67469 28.5728 9.09357C28.7071 9.15051 28.8414 9.20892 28.8224 9.20016C29.2457 9.04247 29.5756 8.91982 29.9085 8.79717L29.8939 8.78403H29.891Z" fill="black"/>
<path d="M35.4221 10.0091C35.6644 10.3142 35.9068 10.6208 36.1973 10.9859C35.9885 11.018 35.8557 11.0399 35.6907 11.0647C36.5184 11.4984 35.9681 12.5 35.771 13.103C35.4411 14.1178 35.1564 14.8172 34.8177 13.3688C34.9783 13.4111 35.1112 13.4462 35.3053 13.4987C35.2061 13.3396 35.1316 13.2198 35.0893 13.1512C35.3812 12.7409 35.733 12.4095 35.736 11.9087C35.7374 11.3699 35.3491 10.6515 35.282 10.0762C35.3287 10.0543 35.3754 10.031 35.4221 10.0091Z" fill="black"/>
<path d="M38.8789 14.4493C38.5972 14.128 38.4498 13.966 38.3768 13.5527C38.1797 13.3585 37.9505 13.1352 37.7213 12.9103C37.768 12.846 37.8147 12.7818 37.8615 12.7176C38.3198 12.9935 39.0454 13.141 38.7943 13.6944C38.9271 13.8418 39.0877 14.0185 39.2994 14.2551C39.2599 13.8126 39.2249 13.4155 39.1899 13.0169C39.2307 12.9906 39.2702 12.9643 39.311 12.938C39.676 13.5907 39.6059 14.35 39.6497 15.0873C39.6088 15.0902 39.4629 15.1019 39.3169 15.1136C39.3461 15.0713 39.3753 15.0289 39.4045 14.9866C39.2234 14.8026 39.0439 14.6186 38.8629 14.4347L38.8789 14.4507V14.4493Z" fill="black"/>
<path d="M30.8676 11.8386C30.7479 11.732 30.5537 11.5568 30.3274 11.3524C30.3669 11.0764 30.4194 10.7128 30.4647 10.4004C31.1931 11.2297 31.7172 12.627 30.3391 13.2198C30.2574 12.6548 30.5289 12.2562 30.8676 11.8386Z" fill="black"/>
<path d="M24.3656 38.2943C24.9554 38.4666 25.7364 38.5017 26.0312 39.0901C26.2546 39.5369 26.0984 40.9167 25.8166 41.3387C25.3641 40.7532 25.8867 40.1195 25.6721 39.4785C25.4678 38.8682 24.8459 38.6652 24.3656 38.2943Z" fill="black"/>
<path d="M34.6455 12.7993C34.7273 12.6635 34.8047 12.538 34.8981 12.3832C34.739 12.2839 34.5988 12.1978 34.4207 12.0883C34.5346 11.9671 34.6295 11.8663 34.7229 11.767C34.5477 11.5276 34.3842 11.3042 34.1609 10.9975H34.739C34.6835 10.7712 34.5682 10.5785 34.3901 10.4179C35.3433 10.2178 35.4878 12.9599 34.647 12.7993H34.6455Z" fill="black"/>
<path d="M34.0192 12.2445C34.7301 13.1162 34.9111 14.2522 34.7579 15.3618C34.4133 15.0581 34.5126 14.6508 34.4747 14.2054C34.4119 13.452 34.4863 13.2929 33.8513 12.9191C33.8864 12.7789 33.9506 12.5205 34.0192 12.243V12.2445Z" fill="black"/>
<path d="M32.6484 12.4007C33.6221 12.189 33.6046 13.4067 33.0557 13.855C33.0367 14.0448 33.0178 14.2361 32.9988 14.4259C32.9433 14.4317 32.8864 14.4361 32.8309 14.442C32.7462 14.1718 32.6616 13.9017 32.5769 13.6316C32.7083 13.6082 32.8397 13.5849 32.9915 13.5571C32.882 13.1906 32.7681 12.8052 32.6484 12.4007Z" fill="black"/>
<path d="M13.6097 47.3952C14.6842 47.2886 15.7892 47.1791 16.7746 47.0813C16.3585 47.6099 14.1834 47.8887 13.6097 47.3952Z" fill="black"/>
<path d="M36.1782 14.3047H35.8585C35.8863 14.1397 35.9111 13.9908 35.9403 13.8127C36.4045 13.9411 36.6147 13.5425 36.8089 13.982C36.9373 14.2755 36.4921 15.4816 36.3373 15.7254C36.2848 15.721 36.2322 15.7166 36.1797 15.7123V14.3033L36.1782 14.3047Z" fill="black"/>
<path d="M37.2089 15.3429C37.0862 14.9515 37.0074 14.6975 36.9271 14.4434C36.9636 14.4084 36.9987 14.3719 37.0351 14.3368C37.2059 14.55 37.3753 14.7632 37.6366 15.0917C37.6118 14.7354 37.5928 14.4566 37.568 14.0959C38.4395 14.734 38.0395 15.1311 37.2074 15.3429H37.2089Z" fill="black"/>
<path d="M37.5169 13.5411C37.1534 13.4184 36.6746 13.7849 36.7213 13.1016C36.7257 13.0417 36.4366 12.9629 36.2162 12.8607C36.2819 12.6621 36.3549 12.4358 36.4293 12.2094C36.5227 12.3817 36.6176 12.554 36.695 12.6942C36.8731 12.6665 37.2074 12.5628 37.238 12.6197C37.3709 12.8709 37.4161 13.1702 37.5169 13.5411Z" fill="black"/>
<path d="M6.88442 40.6904V42.5301C6.84063 42.5506 6.79684 42.571 6.75304 42.5914C6.42459 41.6979 6.26109 41.4394 6.70633 40.5999C6.76472 40.6291 6.82457 40.6597 6.88296 40.6889L6.88442 40.6904Z" fill="black"/>
<path d="M36.3739 25.8965C37.2293 25.568 37.8585 26.1418 37.7009 27.034C37.5943 26.228 36.9739 26.0922 36.3739 25.8965Z" fill="black"/>
<path d="M37.8308 24.9051C37.5228 24.8044 37.2804 24.7255 37.1885 24.6963C37.3403 24.305 37.4658 23.9268 37.6979 23.5735C37.8936 24.0028 37.8308 24.4408 37.8308 24.9051Z" fill="black"/>
<path d="M31.5507 12.9848C31.6105 12.5876 31.6689 12.1905 31.7288 11.7933C31.7813 11.7802 31.8339 11.767 31.8864 11.7539C32.0499 12.3014 31.9798 12.519 31.7901 13.0665C31.7098 13.0388 31.6295 13.0125 31.5492 12.9848H31.5507Z" fill="black"/>
<path d="M31.1317 15.8364C31.0923 16.381 31.1375 16.9504 30.5609 17.3359C30.7011 16.8234 30.8397 16.3094 30.9799 15.7969C31.031 15.8101 31.0821 15.8232 31.1332 15.8364H31.1317Z" fill="black"/>
<path d="M28.5611 48.3749H27.9188C27.8852 48.518 27.8443 48.6859 27.8049 48.8524C27.0341 48.4114 28.2283 47.6551 28.5465 48.3895L28.5611 48.3749Z" fill="black"/>
<path d="M33.7841 15.1092C33.7447 15.0085 33.2221 13.8521 33.4659 13.8725C33.8163 13.9017 33.9199 14.7676 34.009 15.0391C33.9345 15.0625 33.8601 15.0859 33.7856 15.1092H33.7841Z" fill="black"/>
<path d="M37.0731 30.0637C37.2322 29.706 37.3914 29.3497 37.5519 28.992L37.7519 29.0781L37.2877 30.1659C37.2162 30.1309 37.1447 30.0973 37.0731 30.0622V30.0637Z" fill="black"/>
<path d="M37.6089 30.455C37.3097 30.6755 37.0089 30.8974 36.6294 31.1763C36.7287 30.5864 36.9841 30.5674 37.5257 30.2973C37.5534 30.3499 37.5812 30.4024 37.6089 30.455Z" fill="black"/>
<path d="M32.0252 14.6362L31.8953 13.7119C32.358 13.8389 32.2544 14.1222 32.304 14.5821C32.2106 14.5997 32.1172 14.6172 32.0237 14.6362H32.0252Z" fill="black"/>
<path d="M38.6541 16.3124C38.4906 15.8772 38.3825 15.5867 38.2643 15.2713C38.7066 15.2713 38.9256 15.7458 38.6541 16.3124Z" fill="black"/>
<path d="M35.7024 14.8493C35.7024 15.8977 35.3229 15.8189 35.4513 14.8406C35.5346 14.8435 35.6192 14.8464 35.7024 14.8493Z" fill="black"/>
<path d="M38.8628 14.4332C38.9212 14.6376 38.9796 14.842 39.073 15.1676C38.7139 14.8873 38.4789 14.7062 38.2453 14.5237C38.2424 14.4843 38.241 14.4463 38.238 14.4069C38.4512 14.4215 38.6658 14.4361 38.8789 14.4507L38.8628 14.4332Z" fill="black"/>
<path d="M15.8374 52.875C16.579 52.4238 16.8096 52.5144 15.9863 53.0984C15.9367 53.0239 15.887 52.9495 15.8374 52.875Z" fill="black"/>
<path d="M26.1232 50.8863C25.9641 50.6659 25.805 50.4454 25.6006 50.1607C26.1743 50.0964 26.0487 50.3432 26.1217 50.8863H26.1232Z" fill="black"/>
<path d="M30.3274 11.6794C30.3011 11.9233 30.2748 12.1671 30.2325 12.5672C29.9347 12.1569 29.996 12.0897 30.1537 11.5962C30.2121 11.6239 30.2704 11.6517 30.3274 11.6794Z" fill="black"/>
<path d="M26.764 48.2304C26.6808 48.0888 26.5976 47.9471 26.5144 47.8055C26.6108 47.7558 26.7086 47.7077 26.8049 47.658C26.856 47.8172 26.9071 47.9763 26.9582 48.1355C26.8925 48.1676 26.8283 48.1997 26.7626 48.2318L26.764 48.2304Z" fill="black"/>
<path d="M37.4965 15.6816C37.3637 15.813 37.2294 15.9444 37.0965 16.0758C36.8907 15.7955 37.1082 15.74 37.3432 15.5166C37.3943 15.5721 37.4469 15.6276 37.498 15.6816H37.4965Z" fill="black"/>
<path d="M37.6322 16.895C37.7621 16.8 37.892 16.7051 38.022 16.6102C38.0731 16.7124 38.1242 16.8146 38.1738 16.9169C38.0176 16.9592 37.8599 17.0015 37.7037 17.0439C37.6804 16.9942 37.6556 16.9446 37.6322 16.895Z" fill="black"/>
<path d="M28.5187 47.5938C28.364 47.7062 28.2078 47.8186 28.053 47.9296C28.0107 47.8727 27.9684 47.8157 27.9275 47.7588C28.0793 47.6434 28.2326 47.5266 28.3844 47.4113L28.5187 47.5938Z" fill="black"/>
<path d="M14.6272 40.1852C14.3571 40.4086 14.3425 40.5152 14.0652 40.3107C14.3265 39.9968 14.2871 40.0742 14.6272 40.1852Z" fill="black"/>
<path d="M18.0489 39.9647C17.9628 40.1676 17.8942 40.3283 17.8241 40.4903C17.6125 40.2115 17.719 40.1604 17.903 39.8625C17.9555 39.9005 18.0081 39.937 18.0475 39.9662L18.0489 39.9647Z" fill="black"/>
<path d="M18.0066 39.2887C17.6563 38.8097 17.8212 38.6871 18.1905 39.1441C18.1292 39.1923 18.0679 39.2405 18.0066 39.2887Z" fill="black"/>
<path d="M25.8691 49.4715C25.7129 49.4861 25.5552 49.5022 25.399 49.5168C25.437 49.1839 25.3567 49.27 25.8676 49.27C25.8676 49.3372 25.8691 49.4043 25.8706 49.4715H25.8691Z" fill="black"/>
<path d="M15.3002 41.2876C15.3907 41.4978 15.1922 41.7095 15.0885 41.9008C14.9163 41.5124 14.9513 41.5358 15.3002 41.2876Z" fill="black"/>
<path d="M26.6152 48.4071C26.7495 48.4669 26.8838 48.5253 27.0181 48.5852C26.9655 48.667 26.9115 48.7502 26.859 48.832C26.748 48.7385 26.6356 48.6451 26.5247 48.5502C26.5539 48.502 26.5845 48.4538 26.6137 48.4056L26.6152 48.4071Z" fill="black"/>
<path d="M11.2828 40.6349C11.731 40.4524 11.6244 40.4188 11.82 40.6831C11.7106 40.7473 11.6011 40.8116 11.4916 40.8758C11.4215 40.7955 11.3529 40.7152 11.2828 40.6349Z" fill="black"/>
<path d="M31.0136 3.34073C31.3668 3.70284 31.6398 3.98172 31.9128 4.2606C31.8632 4.31024 31.815 4.35843 31.7654 4.40807C31.6384 4.30878 31.5113 4.21096 31.2661 4.01968C31.3362 4.41975 31.3887 4.71323 31.4398 5.00672C31.4106 5.03008 31.3814 5.05344 31.3522 5.0768C31.1858 4.86655 31.0194 4.65483 30.9099 4.51612C30.942 4.15547 30.9712 3.82987 31.015 3.34219L31.0136 3.34073Z" fill="black"/>
<path d="M7.41431 5.70905C8.12961 5.77183 7.76612 6.33397 8.06684 6.49897L7.90334 6.59825C7.76466 6.34711 7.62598 6.09451 7.41431 5.70905Z" fill="black"/>
</g>
<defs>
<clipPath id="clip0_19_202">
<rect width="41" height="58" fill="white"/>
</clipPath>
</defs>
</svg>
