<?xml version="1.0" encoding="UTF-8"?><svg id="Layer_2" xmlns="http://www.w3.org/2000/svg" viewBox="0 0 463.44 642"><defs><style>.cls-1{fill:#f7f7f7;}</style></defs><g id="Layer_1-2"><path class="cls-1" d="M176.72,4.99c15.48-3.59,31-4.56,46.91-4.63,7.82-.31,15.58-.47,23.34-.26,77.55,2.16,156.5,42.54,187.67,111.54,3.12,6.9,5.78,14.09,7.97,21.67.72,2.43,1.34,4.88,1.9,7.36.56,2.51,1.05,5.05,1.48,7.63,1.38,20.9,4.29,41.27,9.14,63.58,2.91,16.49,10.67,32.01,7.6,48.89-.42,3.45-1.03,6.9-1.86,10.35-.83,3.46-1.88,6.92-3.17,10.39-.22,2.1-.49,4.2-.8,6.29-.95,6.29-2.34,12.57-4.19,18.83-.61,2.99-1.12,5.99-1.46,9.02-.97,11.64.97,24.25-.97,35.89-.97,4.85-.97,10.67-4.55,14.84-1.24,3-2.61,5.94-4.13,8.8-6.06,11.41-14.45,21.46-26.64,28.89-1.98,1.72-3.81,3.57-5.43,5.68-2.91,3.88-5.82,6.79-6.79,10.67-3.88,18.43-8.76,36.92-18.79,52.84-1.92,3.5-3.87,6.93-5.87,10.33-28.09,47.84-68.5,89.64-114.23,121.06-3.04,2.12-6.1,4.18-9.07,6.25-22.82,21.95-57.74,42.32-90.12,23.93-3.08-1.47-5.99-3.15-8.76-5.02-22.19-14.94-36.43-43.33-51.39-65.79C37.09,502.68,19.36,418.68,14.39,330.88-18.39,213.01,1.88,82.83,105.92,30.24c6.94-3.51,14.23-6.67,21.89-9.46,7.65-2.82,15.49-5.69,23.52-8.64s16.44-5.46,25.4-7.16Z"/><path d="M432.1,150.39c-4.83.93-2.72-11.49-18.75-2.69-.75-1.56-1.23-4.4-2.46-5.41-9.85-2.81-8.67-11.43-9.68-18.67.25-5.13,2.7-8.7-1.15-13.57-2.82,3.41-5.55,6.88-7.92,10.62l.14.15c-.04-4.42-3.22-6.25-6.53-8.4-.72,2.79-1.44,5.58-2.18,8.37-2.02-1.44-3.89-3.06-5.73-4.72-4.12,6.78-8.34,13.25-2.68,20.95.87,1.29-3.21,5.93-5.01,9.02-2.51-1.76-5.01-3.52-7.52-5.27,4.24-2.83.17-6.16.62-8.6.87-4.76,7.2-9.17-1.24-13.02-1.1-1.6-.53-4.18-.87-6.08-1.4,1.84-2.8,3.69-4.2,5.53,2.62,1.59,5.3,3.06,8.02,4.48-1.4.46-3.8.62-4.04,1.42-2.42,8.19-6.31,3.12-8.54.53-2.2-2.78-2.23-7.51-3.53-11.02-1.48,3.4.02,6.76.17,10.21,0,.33-2.98,1.26-3.14,1-3.17-4.99-6.08-10.15-9.15-15.2-2.41-4.07-4.92.62-7.41,2.02,3.59,2.72,5.65,6.87,8.42,10.36-6.38,2.48-7.47,8.31-8.25,14.45-7.95-6.27-9.62-15.88-11.64-25.19,3.16-2.96,9.91-1.25,12.11-5.53-3.4-1.59-3.47.13-5.92,1-5.34-1-10.64-2.4-9.6,6.31-3.62,3.55-9.23-6.05-12.33-8.18-1.38-4.25-20.55-2.28-25.6-3.27-14.89-.85-29.8-1.51-44.31,1.82-15.15-.63-30.26-2.21-45.41-2.99-2.43-.13-4.9,2.43-7.49,2.84-24.7-3.33-50.01-2.53-74.88-4.89-13.97-1.28-24.5,4.28-36.52,10.39-36.72,13.79-55.67,124.97-42.77,156.68,14.23-12.85,26-13.26,43.94-7.55,9.13,3.72,20.26,4.34,27.41,11.41,6.29.69,7.02,2.34,10.92,7.09.23-1.32.52-2.62.63-3.96.63.41,1.7.72,1.81,1.23,1.2,5.89,4.42,8.88,10.68,7.93.8,2.74.89,6.6,1.31,9.56-3.62-5.41-11.34-5.54-16.38-9.26-5.7-3.82-11.88-7.6-16.68-12.49-3.47,8.01-7.71-.79-13.31.31-10.43-.79-20.77-6.9-31.33.75-9.14,4.88-19.46,3.62-17.18,17.91,26.52,115.04.05,166.41,93.02,260.56-.22-4.14-1.66-8.05-2.67-12.05,8.02,10.02,11.82,22.56,18.29,33.52,8.54,5.99,8.09,1.16,10.37,13.88,2.77-1.27,5.34-3.03,8.53-2.25.1,2.08-1.47,3-2.89,4.16,5.47-1.19,7.24-1.53,8.53,4.43,3.3-3.36,8.73-5.3,10.08-10.05.43,8.6,8.38-6.1,8.78,2.83.04.86.73,1.69,1.12,2.54.49-2.96,2.46-5.3,4.21-7.65.16-.2,1.36.42,2.08.67-1.79,1.87-1.92,4.69-2.84,7.04.61-.92,1.21-1.84,1.82-2.76,2.08,2.31,4.4,4.43,6.22,6.95.21-.73.74-1.54.57-2.16-2.24-8.45,7.72-6.69,9.7-11.6,3.83-2.19,3.28,21.94,10.02,19.07-1.16-3.61-4.41-8.79-1.01-11.87,1.64,2.96,3.85,5.53,5.86,8.24,2.44-4.01-2.03-3.43-1.57-11.1,4.72,4.02,5.17,10.37,6.73,16,2.5-.13,1.81-3.06,2.14-4.83-2.52-2.48-1.9-6.92-2.83-10.28,2.13,3.35,4.13,6.79,6.54,9.95-.58-2.89-1-5.8-1.4-8.72,1.66,1.1,3.23,3.52,5.37,3.35,3.97-1.43,7.89-2.98,11.83-4.49.27,3.56-.1,7.23.66,10.72,4.63-4.59,1.52-14.24,12.12-13.82,1.97.08,3.99-4.27,6.3-6.21.35-.27,3.48,2.78,4.63,3.45,4.41-3.16,4.55-3.61.91-7.88,7.61-5.26,15.92-9.54,23.56-14.79.06-1-2.95-6.95-4.39-8.78,7.17-5.66,4.29,11.53,11.76,2.11,8.91-11.54,21.93-20.59,29.07-33.09-4.35,3.35-9.9,2.65-4.12-2.47,16.52-2.59,19.59-18.42,28.24-28.65,34.2-43.26,27.28-43.6,39.09-92.55.79,85.91-78.83,143.81-132.2,201.45-1.4,1.29-4.58.57-6.13,1.79-9,7.1-17.51,14.84-26.69,21.68-6.38,4.75-13.57,8.41-20.4,12.55-.55-1.14-.91-3.11-1.69-3.29-9.63-1.97-19.31-4.88-29.01-5.97.67,3.97,8.22,7.89,12.13,8.34-1.8.41-4.13,1.73-5.31,1.05-5.78-3.52-10.67-8.6-16.63-11.92-4.44,1.71-.31,5.52,1.95,7.49-6.7,3.29-4.35-5.1-15.18-6.07-2.56-.32-6.54-8.31-5.85-12.08,2.54-13.8-5.7-22.26-13.05-31.45-40.19-49.67-86.18-98.69-92.14-165.35-5.3-42.45-10.11-84.73-23.32-125.61-2.14-47.98.19-96.25,19.79-141.13,8.13-23.26,10.81-44.78,28.45-63.98,16.9-24.75,46.97-34.56,73.82-44.65,9.07-2.95,18.59-4.86,28.06-6,3.27-.4,6.93,3.01,10.51,4.43,2.02.69,5.67,1.36,5.29-1.82-3.24-2.13-6.75-3.32-10.67-3.08,1.92-1.28,3.68-3.19,5.79-3.72,10.93-1.97,21.92-7.1,33.1-5.08-1.94,1.69-4.44,2.87-5.11,5.56.87.19,2.02.84,2.56.51,12.4-8.81,17.63,14.72,23.83,5.21-3.45-2.05-7.43-4.4-7.34-8.97-2.86,2.35-6.8.2-10.09-.13-.5-.12-.7-1.51-1.04-2.31,8.22-3.44,18.16-2.28,26.66-1.14,22.01,5.13,44.76-4.94,65.97,5.41,24.65,12.65,50.69,22.93,73.04,39.21,25.24,23.47,48.57,54.02,51.56,89.3l.11-.03ZM353.16,57.32c2.33-3.27,6.19-4.09,9.67-5.62-8.06-3.26-18.37-2.84-25.85-4.54,3.25,3.7,4.17,10.54,4.37,15.69,1.46,8.18,5.04,16.23,4.95,24.56,1.47-.73,3.19-1.2,4.28-2.31-.49-3.25.37-7.51,1.22-10.95,1.15-5.64.2-11.29,1.23-16.97,0,0,.14.14.14.14ZM106.04,53.43c1.53-.16,3.07-.32,4.6-.48-1.55,2.42-3.1,4.84-4.64,7.26,8.07-.86,11.93-10.91,20.35-11.29,3.11.52,3.9-.86,5.14-3.42-9.33-.59-17.86,2.7-25.45,7.93-8.4.74-14.06,6.83-21.13,10.59,1.03.89,2.64,2.75,3.01,2.52,3.9-2.54,7.29-5.86,11.64-7.73.52,1.87,1.05,3.72,1.92,5.46.55-3.91,3.05-7.23,4.55-10.85ZM300.48,72.26c-1.94.68-3.87,1.37-5.81,2.05,12.34,6.21,18.13,18.6,26.36,29.12,4.63-3.76,8.9-10.79,15.89-10.89,1.59-.06,3.34,3.04,4.88,4.83.17.2-.54,1.15-.84,1.75,1.12.23,2.24.45,3.36.68-.79-5.23-.04-11.83-2.48-16.39-7.01,4.95-14.5,9.3-20.75,15.23-8.34-18.26-.24-17.66-20.71-26.49-.29-3.14.53-8.15-1.07-9.11-6.41-3.82-5.96-7.62-2.09-12.76.72-.96.07-2.96.05-4.47-.89.29-2.49.45-2.58.9.08,2.93-5.1,19.23-1.54,18.72,8.2-3.83,5.45,3.99,7.33,6.85ZM87.85,70.16c-4.23,2.79-5.47,5-3.01,9.67,3.85,1.92,2.54-1.42.5-3.21,1.42-.42,2.84-.85,4.26-1.27.33,6.58,5.13,10.95,9.54,15.24.43.4,3.11-1.64,4.75-2.55-1.24-3.74-9.62-8.95-6.64-12.54,1.04-.09,3.03.35,3.09.81,1.74,12.28,3.39-4,4.99,0,.83-1.47,1.65-2.94,2.48-4.41-3.94-1.23-7.87-2.46-11.81-3.7-1.02,1.95.22,3,1.53,4.3-3.94.4-5.98.15-9.67-2.34ZM420.24,136.99c3.56-4.99,4.38-16.82-1.62-20.44-9.77,4.4-2.65,6.46,1.33,11.65.9,1.23.66,3.33.74,5.04,0,.1-1.8.66-2.48.37-5.84-1.77-7.9-7.67-11.24-12.16-5.48,3.44,5.97,15.58,13.28,15.55ZM144.08,88.14c4.79,2.91,7.79,7.15,13.48,6.11-1.53-8.83-4.24-9.92-12.65-8.19-3.33.27-6.17,4.08-9.62,2.22,2.42,4,4.88,7.18,9.94,7.31-1.86-2.25-4.2-5.19-1.15-7.46ZM324.04,68.22c.63-.07,1.25-.14,1.88-.21-2.21-.99-2.02-3.7-1.69-5.63.67-.95,3.64-1.2,5.04-1.32-5.58-9.92-4.92-3.12-11.86.36-1.57-.66-5.21-5.72-7.6-7.02.33,8.63,4.56,15.84,14.24,13.82ZM258.46,82.4c-.95,1.17-1.9,2.33-2.86,3.5-1.77-2.88-5.49-5.14-3.13-8.79-14.23,5.47,12.55,9.89,14.88,14.58,3.77,5.56,7.07,1.43,10.47.36.44-.14.12-2.66.16-4.08-1.88.54-4.67,2.48-6.38,2.28-4.47-2.44-8.77-5.19-13.13-7.84ZM205.54,78.2c.24-.47.47-.93.71-1.4,3.55.4-2.88,10.09-3.28,12.79,3.89,1.89,6.26,1.25,7.16-3.13,1.85-5.78.23-10.91-3.22-15.69-2.05-1.25-3.79,4.29-5.28,5.56,1.31.62,2.61,1.25,3.92,1.87ZM150.86,70.44c.39.2,1.47.75,2.55,1.3-1.11,2.11-2.17,4.19-4.15,5.62,2.62-.18,7.52-4.21,7.61-5.66-1.91-5.09-4.68-9.87-7.16-14.75-3.46,1.12-5.49,3.46-7.03,6.66,2.85-.5,5.67-.7,8.54-.27-1.38,3.05-3.31,5.69-5.5,8.2,1.41-.3,2.81-.6,5.15-1.1ZM331.62,42.16c-.19.34-.37.69-.56,1.03-.99-.32-1.99-.65-2.98-.98.86-1.88,1.85-3.69,2.82-5.5-.88-.34-2.43-1.13-2.54-.96-1.45,2.77-2.71,5.69-4.46,8.33-3.37-4.53-10.51-3.72-9.24,2.82,1.01-.13,2.19.03,3.01-.44,4.46-2.55,10.25,6.15,14.08-1.68.28-.57,1.37-.75,2.09-1.11-.74-.5-1.48-1-2.22-1.5ZM327.59,73.43l-1.22-1.92c-3.82,1.15-3.72,2.04-2.09,5.36,3.96-4.22,16.56,5.52,14.22-8.78-.86-2.39-.63-6.72-4.23-5.94,3.95,7.75-1.1,7.91-6.68,11.29ZM256.98,76.72c.11-.42.22-.84.33-1.27-2.69-5.29-4.83-10.74-6.14-16.54-2.44,2.49-6.35,5.18-7.26-.09-1.72,1.91-9.33,4.01-6.17,6.85.37.26,1.35-.51,1.96-.38,8.8.8,13.77,2.86,17.28,11.43ZM370.11,71.96c-.3.08-.6.16-.9.24.26,1.54.52,3.07.78,4.61.43-2.34.89-4.54,1.64-6.79,3.84,1.57,7.81,2.59,11.8,3.71-1.43-7.31-15.09-3.53-11.8-12.86-1.87.66-3.75,1.32-5.62,1.98,1.75,2.86,3.11,5.91,4.1,9.12ZM131.36,67.97c3.21,4.04-12.87-4.71-3.21,4.44.22.2-.5,1.85-1.14,2.38-.76.63-1.92.78-2.91,1.13,1.66,3.75,2.44,2.49,5.37,1.21,3.32-1.03,7.86-.9,10.82-2.41,1.69-5.24-5.8-4.76-8.92-6.74ZM77.98,72.96c-2.41.86-3.67,1.31-4.93,1.75,3.61,6.72,8.77,12.52,13.2,18.72.39.52,1.75.3,2.66.42-.23-8.94-6.7-13.8-10.92-20.9ZM121.37,79.42c-.61-1-1.21-1.98-1.8-2.96-3.3,2.4-9.07,5.18-12.36,1.63-.79,6.37,2.65,11.14,6.36,15.88.46-.43,1.39-1.13,1.33-1.24-4.08-6.92-.37-10.01,5.76-12.02.33-.11.46-.8.72-1.3ZM386.7,100.07c.88,1.86,1.53,3.23,2.17,4.61-.52-2.34.48-5.46,2.81-5.6,3.91,2.36,6.77,6.57,11.88,5.63-.14-1.01-.48-2.05-.38-3.04.6-5.86-11.5-1.87-7.77-10.07-2.91.29-5.98,6.26-8.71,8.47ZM376.88,104.48c1.41-1.32,2.82-2.64,4.23-3.96-4.97-2.21-8.47-3.31-12.67,1.06,4.24,3.1,8.47,6.2,12.71,9.31-1.42-2.13-2.85-4.27-4.27-6.4ZM268.77,31.39c-6.87-.41-10.26,9.18-16.83,11.24,13.99,6.38,5-12.42,14.43-3.77.68-2.13,1.36-4.26,2.39-7.47ZM358.38,92.06c.68-.1,1.37-.2,2.05-.3-1.06-1.76-2.61-5.17-3.09-5.02-5.75,1.71-7.55,5.66-4.54,11,7.39,6.04,5.33-.02,5.59-5.67ZM232.93,55.01c-3.92,3.44-8.49,7.17-12.61,11.35-.51.19.82,5.62,2.35,5.61.92-.82,2.61-1.85,2.5-2.59-1.74-10.93,7.81-8.13,13.72-12.04-1.27-.5-2.53-.99-5.96-2.33Z"/><path d="M116.43,314.74c3.51,1.82,11.19,12.33,14.44,7.85,1.25-10.86,1.74-21.48-3.42-31.49,1.73.72,4.65,1.1,4.97,2.22,1.41,4.93,3.14,10.14,2.81,15.12-1.64,24.81-3.85,49.59-6.02,74.36-.13,1.43-1.64,2.74-2.51,4.11-.53-1.55-1.64-3.16-1.5-4.64,1.61-16.61,3.5-33.19,4.99-49.8.09-1.03-2.72-3.48-3.86-3.29-14.16,2.33-28.25,5.08-42.39,7.6-31.77,5.83-32.68-15.43-41.72-11.34-8.49,2.27-4.34-8.02-6.27-11.38-5.27-4.95.02-6.34,1.99-9.66,8.31-13.99,21.22-7.24,32.33-7.6,16.86.41,35.91-3.36,49.22,9.53.71.55-2.05,5.57-3.21,8.53,1.42-8.96-5.17-11.85-11.47-12.27-17.79-1.19-35.68-1.83-53.48-1.15-3.87.15-7.59,6.64-11.11,10.45-.58.62.22,2.52.38,3.82,5.32-2.72,11.22-8.52,16.68-8.73,19.92.47,41-6.42,59.13,7.76ZM63.3,309.74c-5.05,3.8-9.15,6.28-12.13,9.72,1.28,6.95,14.38,13.27,21.81,12.78-3-8.35-4.17-14.82-9.68-22.5Z"/><path d="M243.96,324.93c-11-.7-23.77-1.4-36.51-2.42-2.02-.16-3.93-1.71-5.9-2.62,23.24-28.33,62.07-38.09,96.06-23.68,5.1,2.06,11.09,1.9,16.67,2.77-37.12-29.8-78.21-13.81-112.89,10.08-2.79,2.68-5.32,1.15-8.19-.39,7.82-5.93,15.84-13.02,24.75-16.72,24.68-8.42,50.88-18.95,77.26-13,8.26,2.69,20.56,14.46,18.84,24.28-.98,2.84-6.78,4.22-10.63,5.82-7.98,2.27-15.99,9.07-24.39,6.01,1.06-3.24,4.27-12.33-1.34-12.32-.14-.03-.51,1.12-.78,1.73,1.42.2,2.78.27,3.53,1.68-2.03,1.59-4.4,2.37-6.86,3.05,1.79,5.03,1.76,6.85-2.5,1.43-.18-.24-.95-.02-1.44-.01,1.83,8.34-3.41-.32-4.23,1.75-1.87,1.93-.41,3.89.19,6.04-2.78-6.29-9.33-5.56-15.04-6.88-.03.62-.34,1.6-.06,1.82,4.08,3.14,7.81,6.89,13.29,6.99-6.76,2.47-11.4,2.75-19.85,4.57ZM234.56,321.83c7.16-.65,16.86,1.06,8.46-10.42-.64-.87-.89-2.21-.89-3.33,1.01-19.51-17.95,1.67-24.5,5.17-.75.6-.66,3.79-.38,3.88,5.99,1.8,12.06,3.33,17.31,4.7ZM285.71,313.49c4.6-3.44,8.87-6.62,13.06-9.89.06-.04-.7-1.75-1.28-1.9-4.41-1.15-10.67-6.8-10.47,4.14.31,2.5-2.36,5.18-1.32,7.65Z"/><path d="M434.08,318.62c2.35-20.07,24.49-62.84,1.34-74.81-19.91-10.61-29.05,10.29-40.99,22.85-2.9-11.29,17.85-28.82,27.74-29.04,8.25.2,6.61-4.32,6.99-8.8.59-7.18,2.08-14.76,1.04-21.76,1.46-3.6,1.31-6.38-2.24-8.47,1.96-2.01,4.66-2.53,7.24-3.39-2.42-3.68-4.64-7.51-7.32-10.99-1.56-3.06-8.02-4.65-5.15-8.43,16.08,11.98,6.97,2.81,13.2,1.22.89.32,2.12,1.47,2.12,2.27-.18,18.74,1.32,37.57-3.49,55.89-.21,1.36.32,3.78,1.24,4.24,17.64,8.83,15.03,24.17,12.19,39.04-3.89,20.33-9,40.42-12.89,60.74-1.83,9.56-1.01,19.67-3.2,29.11-3.63,18.01-27.66,29.94-42.68,18.3,3.01-3.12,8.14-1.02,12-.89,32.9,4.64,30.6-37.46,30.89-59.48-7.66,11.69-16.71,22.87-27.29,32.06-.31-5.4,4.04-12.27,7.82-14.97,15.4-7.87,18.34-27.81,16.19-41.28-.41-8.87-7.08-30.82-2.65-36.95.6,1.31,1.53,2.56,1.75,3.93,1.89,16.5,7.07,32.92,5.36,49.59.27,0,.55.02.82.03Z"/><path d="M188.66,463.79c-1.63-.3-3.25-.59-4.88-.89,23.18-4.36,46.85-6.27,69.85-11.44,8.63-1.39,14.84-11.46,23.56-13.96-11.66,40.68-129.96,80.04-158.14,37.18-2.45-4.32-24.14-17.79-13.04-20.37.26,1.13.17,2.96.82,3.27,5.99,2.89,11.88,6.68,18.25,7.93,8.47,1.66,17.36,1.83,26.04,1.67,14.14-1.07,29.21.12,42.85-3.33-1.76-.15-3.51-.29-5.27-.44-.02.13-.03.25-.05.38ZM186.05,487.89c.13.41.27.82.4,1.23,25.91-8.51,54.94-14.7,74.41-34.81-40.03,4.43-79.19,19.92-120.31,17.91-.96-.05-3.24,3-2.91,3.89,5.76,21.87,32.09,12.84,48.41,11.78Z"/><path d="M274.49,245.34c-5.86,4.27-11.26,9.17-18.78,10,13.7-8.9-27.61,6.37-29.9,7.82-5.07,2.17-9.82,5.41-14.18,8.85-5.87,3.86-9.01,12.07-16.6,12.74,4.82-18.51,21.05-33.17,40.47-37.72,7.36-1.73,13.52-7.75,21.65-5.64,6.29-1.21,10.64-7.9,17.6-6.69-1.77,1.94-3.37,3.99-4.61,6.31,4.47-2.14,9.56-2.49,14.34-3.74-.91,4.66-6.37,5.95-9.99,8.07Z"/><path d="M274.49,245.34c9.31-4.87,20.11-7.54,30.43-9.04-2.26,1.34-4.16,3.11-6.05,4.91,1.14-.23,2.69-1.06,3.35-.6,7.49,5.25,16.52,9.53,21.44,16.64,5.06,13.52,6.92,3.08,7.83,12.65-.87-.57-1.69-1.52-2.61-1.64-12.96.09-24.73-7.14-36.95-10.84-7.78-4.89-16.82,1.3-24.92-2.37,1.69-3.95,3.6-7.52,7.49-9.71Z"/><path d="M438.83,263.24c-1.32,4.32-2.04,6.7-2.77,9.08-2.79-11.93-3.86-24.57-19-16.21-17.94,11.88-24.64,40.01-15.7,59.82,1.51,3.35-.88,8.41-1.32,12.7-1,9.6-1.9,19.2-2.84,28.8,2.15,3.67-9.45,13.5-7.14,4.1,2.29-10.23,1.82-22.62,5.56-32.1,6.29-8.69-.8-15.86-1.35-23.69-1.52-21.9,2.46-41.89,21.09-52.78,13.58-5.85,18.77-3.73,23.47,10.28Z"/><path d="M211.4,403.86c-.52,26.47-26.69,16.42-45.13,25.37.86-1.27,1.5-3.38,2.63-3.69,9.74-2.66,19.73-4.51,29.3-7.66,16.03-4.81,5.96-19.94,5.59-31.28,7.35.73,13.26,6.66,19.78,9.89.62.38.48,2.01.7,3.05-10.75,4.33-12.95-4.28-12.87,4.32Z"/><path d="M144.2,439.82c-7.3-5.05-15.09-11.57-23.48-15.62-3.71-2.18-9.92-3.96-10.48-6.82-1.2-8.94,1.75-19.03,8.49-25.64-6.08,11.55-12.5,29.4,7.35,27.78,8.25,6.3,18.12,14.85,29.16,15.79-2.9,1.18-5.79,2.37-11.04,4.51Z"/><path d="M392.12,120.67c2.04,6.26,5.69,12.52,5.7,18.79-.85,9.12-4.2,19.44-8.85,27.62-11.79-12.19,5.54-14.74,4.48-28.17-.95-4.76-2.98-9.3-4-14.05-.23-1.09,1.82-2.68,2.81-4.04,0,0-.14-.15-.14-.15Z"/><path d="M411.57,180.13c-2.67-6.52-2.62-7.59-6.7-11.25-2.66,3.71-3.2,8.2-4.27,12.53-4.13-.26-.63-11.35-4.06-14.64-.22-.39-1.39-.56-1.37-.71-.45-6.75,5.42-5.05,9.99-6.19-1.37,6.65,5.56,6.55,8.23,13.08-.07-3.27-2.82-7.33,1.5-8.83,4.99,8.89,7.53,8.51-3.32,16Z"/><path d="M431.99,150.42c1.64,7.89,3.29,15.78,4.8,23.69-6.5,3.95-10.76-7.62-14.55-11.4-8.02-12.01-10.63-16.54,5-7.23.51,1.47-1.41,4.06,1.27,5.7,3.81-2.41,2.8-6.93,3.57-10.78.02-.01-.09.02-.09.02Z"/><path d="M347.83,138.24c-2.49,3.59-4.64,18.48-10.54,16.78-.79-.21-1.93-2.29-1.63-2.97,12.22-20.95-1.99-8.31,3.93-27.8,2.45,4.16,4.9,8.33,8.24,14Z"/><path d="M290.12,434.8c-5.04-4.92-9.86-10.06-15.12-14.74,4.76.82,14.85,3.4,16.17,6.53.82,5.8,2.19,20.91-1.88,25.33-4.27-3.9-1.19-10.04-1.5-15.1.77-.67,1.55-1.35,2.32-2.02Z"/><path d="M382.33,151.04c-.43-2.4-1.86-6.51-1.15-6.93,6.91-3.99-8.91-9.91,1.24-13.21.3-1.91-1.82-4.24-2.71-5.96,9.41-1.89,8.87,12.97,8.13,19.02-.44,2.57-3.68,4.65-5.65,6.95,0,0,.13.13.13.13Z"/><path d="M382.2,150.91c1.11,8.5,6.67,19.7.87,27.05-4.02-6.68-.36-20.18-5.16-24.89-4.52-.7-4.97-6.54-1.11-8.39,2.29,1.5,3.69,4.33,5.53,6.36,0,0-.13-.13-.13-.13Z"/><path d="M365.94,144.55c4.63,8.76,6.54,13.8-.08,22.28-.27.5-2.39.66-2.43.54-3.62-7.05-2.6-14.55-1.01-22,1.17-.27,2.35-.55,3.52-.82Z"/><path d="M171.34,518.69c-3.87-.72-7.68-2.14-11.53-3.11,12.3-.1,24.17-3.65,36.31-5.22-4.72,5.12-17.53,6.38-24.4,9.52-.13-.4-.26-.79-.38-1.19Z"/><path d="M398.05,149.77c1.71-3.12,2.46-4.51,3.22-5.9,3.05,6.64,4.92,3.9,9.62,4.85,1.07,3.85,3.56,10.72-3.14,9.71-3.45-2.55-6.47-5.69-9.7-8.67Z"/><path d="M90.36,446.83c-.63,7.05-.95,11.43-1.12,17.87-5.63-5.21-5.2-11.55-3.52-18.42.15-.8,2.31-1.23,3.55-1.82.52,1.13,1.04,2.26,1.09,2.37Z"/><path d="M407.15,284.99c3.14,4.29,6.22,8.3,8.99,12.52.32.49-1.03,2.09-1.61,3.18-3.7-4.86-8.68-8.83-13.79-12.14,1.28-.71,2.56-1.42,6.41-3.55Z"/><path d="M341.2,62.92c.89-1.06,2.62-2.17,2.55-3.16-1.35-18.41,6.6-.54,9.41-2.44,0,0-.14-.14-.14-.14-.17,1.53-.34,3.05-.51,4.58-1.57-.94-3.12-1.87-4.77-2.67-.27,3.16.38,6.24,1,9.32-2.49-1.88-4.93-3.8-7.55-5.49Z"/></g></svg>