<?xml version="1.0" encoding="UTF-8"?><svg id="Layer_2" xmlns="http://www.w3.org/2000/svg" viewBox="0 0 35.73 76.79"><g id="Layer_1-2"><path d="M3.85,76.11c-.4.65-1.25.84-1.89.44-.53-.32-.75-.96-.59-1.53-.02.03-.03.07-.04.11-.02.09-.03.18-.03.28,0,.11.01.21.04.31.01.07.03.14.06.21.01.01.01.02.02.04.03.07.07.14.12.21.14.21.34.38.57.48.06.03.12.05.19.07.05.02.09.03.14.03.08.02.15.03.23.03h.02c.09,0,.18-.01.27-.03.09-.02.18-.04.26-.08.09-.03.16-.08.24-.13.07-.05.14-.1.2-.17.07-.06.12-.13.17-.2.05-.06.08-.13.11-.2.03-.06.05-.12.07-.19.01-.02.02-.03.01-.05-.04.13-.1.25-.17.37ZM4.06,75.32c0,.09,0,.17-.01.26.02-.06.02-.11.02-.17,0-.03,0-.06-.01-.09ZM7.52,31.1s-.01-.01-.02-.01c-.02,0-.03.01-.04.01,0,0,.16.03.06,0ZM4.89,26.17h.02c.09-.02.17-.06.24-.12.03-.03-.2.07-.26.12ZM3.85,76.11c-.4.65-1.25.84-1.89.44-.53-.32-.75-.96-.59-1.53-.02.03-.03.07-.04.11-.02.09-.03.18-.03.28,0,.11.01.21.04.31.01.07.03.14.06.21.01.01.01.02.02.04.03.07.07.14.12.21.14.21.34.38.57.48.06.03.12.05.19.07.05.02.09.03.14.03.08.02.15.03.23.03h.02c.09,0,.18-.01.27-.03.09-.02.18-.04.26-.08.09-.03.16-.08.24-.13.07-.05.14-.1.2-.17.07-.06.12-.13.17-.2.05-.06.08-.13.11-.2.03-.06.05-.12.07-.19.01-.02.02-.03.01-.05-.04.13-.1.25-.17.37ZM4.06,75.32c0,.09,0,.17-.01.26.02-.06.02-.11.02-.17,0-.03,0-.06-.01-.09ZM1.7,33.95v.02s.01,0,.01-.01c-.01,0-.01,0-.01,0ZM1.25,33.54s-.02,0-.01.01h.01s.03,0,0-.01ZM28.08,32.21c-.1-.22-.32-.34-.55-.32-.31.03-.53.3-.5.61.01.06-.03.17-.09.31-.04-.05-.09-.08-.14-.1-.33-.14-.61-.02-.76.08-.15.1-.24.21-.32.32-.17.21-.28.44-.36.69-.02.06-.03.12-.04.18-.06.54.1.99.44,1.34.08.08.17.14.27.19.45.2.88,0,1.07-.12.16-.13.25-.25.34-.36.17-.24.31-.51.44-.81.25-.62.51-1.34.2-2.01ZM35.63.54c-.08-.21-.34-.48-.64-.53-.37-.06-.54.08-.65.15l-.29.26c-.31.34-.65.84-1.17,1.47l-3.48,4.08c-1.61,1.87-3.46,4.08-5.36,6.45-3.58,4.47-7.24,9.32-10.38,12.73l-2.97,3.12c-1.53,1.62-2.88,2.7-3.19,2.82.01,0,.01.01.02.01.1.03-.06,0-.06,0,0,0,.02-.01.04-.01-.04-.04-.1-.14-.12-.37-.04-.44,0-.97.03-1.49l.03-.54c0-.23.13-.61-.35-.94-.27-.21-.7-.17-.88-.07-.16.08-.24.16-.31.24l-.44.48-1.02,1.06-.86.93c.05-.12.1-.24.15-.36.72-1.87,1.19-3.49,1.44-3.98h0c.07-.07.13-.14.16-.23.12-.29-.02-.63-.31-.75-.33-.13-.6.04-.74.15-.12.11-.21.23-.29.36-.17.25-.32.57-.5.94l-1.29,2.87c-.48,1.08-1.11,2.15-1.58,3.08-.23.45-.4.84-.53,1.2-.05.19-.1.37-.09.61.01.26.2.8.73.94.34.08.57-.02.72-.09.76-.39,1.04-1.03,1.55-1.66l2.46-3.07.23-.25c-.02.21-.03.44-.03.67.02.8.39,1.68,1.32,2.03.98.32,1.73-.26,2.47-.86.77-.63,1.6-1.49,2.54-2.49l2.94-3.19c3.2-3.53,6.83-8.41,10.36-12.9,1.62-2.06,3.21-4,4.64-5.71-.65,1.17-1.36,2.51-2.16,4.03-1.16,2.25-2.46,4.83-3.82,7.62l-3.24,6.77c-1.01,2.12-1.96,4.25-2.94,6.39-3.78,8.16-7.7,16.53-10.6,23.98-1.03,2.66-1.9,5.16-2.66,7.38-1.18,3.61-1.93,6.31-2.4,8.15l-.48,1.78-.26,1.15h0v.02s-.02.06-.03.09c0,.02,0,.05,0,.07,0-.04.02-.08.04-.11-.16.57.06,1.21.59,1.53.64.4,1.49.21,1.89-.44.07-.12.13-.24.17-.37.02-.03.03-.07.03-.1l.26-1.24.37-1.68c.48-1.82,1.23-4.46,2.42-8.01.7-2.21,1.5-4.69,2.47-7.32,2.71-7.38,6.47-15.79,10.12-24.01.97-2.16,1.89-4.29,2.87-6.39l3.21-6.76c1.34-2.79,2.61-5.36,3.75-7.61,1.06-2.13,1.96-3.9,2.72-5.33,1.09-2,1.86-3.35,2.46-4.34.32-.52.64-.95.85-1.44.1-.25.29-.45.08-.97ZM5.15,26.05c-.07.06-.15.1-.24.12h-.02c.06-.05.29-.15.26-.12ZM1.25,33.55h-.01s-.01-.02.01-.01c.03.01.02.01,0,.01ZM1.7,33.97v-.02s0,0,.01,0c0,.01-.01.01-.01.01ZM4.05,75.58c.01-.09.01-.17.01-.26.01.03.01.06.01.09,0,.06,0,.11-.02.17Z"/></g></svg>